<svg width="24" height="19" viewBox="0 0 24 19" fill="none" xmlns="http://www.w3.org/2000/svg">
<path d="M1.9115 15.2635H11.168C11.6427 16.1705 12.3594 16.9308 13.2401 17.4614C14.1207 17.9921 15.1314 18.2727 16.1619 18.2727C17.1924 18.2727 18.2031 17.9921 19.0838 17.4614C19.9644 16.9308 20.6812 16.1705 21.1559 15.2635H22.0885C22.5953 15.263 23.0812 15.0631 23.4395 14.7077C23.7979 14.3524 23.9994 13.8706 24 13.368V1.89547C23.9994 1.39293 23.7979 0.911134 23.4395 0.555786C23.0812 0.200437 22.5953 0.000557447 22.0885 0H1.9115C1.40471 0.000557447 0.918842 0.200437 0.560488 0.555786C0.202133 0.911134 0.000562164 1.39293 0 1.89547V13.3683C0.000632416 13.8708 0.202234 14.3525 0.560581 14.7078C0.918928 15.0631 1.40476 15.263 1.9115 15.2635ZM4.35398 12.4231V10.4223H11.0204C10.7358 11.0537 10.5729 11.7323 10.5402 12.4231H4.35398ZM20.5405 15.0653H11.7834C11.3416 14.2656 11.1317 13.3603 11.1768 12.4496C11.2219 11.5389 11.5203 10.6584 12.0389 9.90545H20.2849C20.8036 10.6584 21.102 11.5389 21.1471 12.4496C21.1923 13.3603 20.9823 14.2656 20.5405 15.0653ZM12.5555 9.27363C13.0209 8.78971 13.5805 8.40449 14.2004 8.14128C14.8203 7.87808 15.4876 7.74236 16.1619 7.74236C16.8363 7.74236 17.5036 7.87808 18.1235 8.14128C18.7434 8.40449 19.303 8.78971 19.7684 9.27363H12.5555ZM16.1619 17.6409C15.3952 17.6409 14.6388 17.4655 13.9515 17.1284C13.2642 16.7912 12.6646 16.3015 12.1993 15.6972H20.1245C19.6592 16.3015 19.0596 16.7912 18.3724 17.1284C17.6851 17.4655 16.9287 17.6409 16.1619 17.6409ZM22.0885 14.6317H21.4393C21.9112 13.3711 21.9081 11.9839 21.4307 10.7253C20.9532 9.46678 20.0335 8.42154 18.8407 7.78192C17.6479 7.14231 16.2623 6.95136 14.9388 7.24419C13.6153 7.53703 12.443 8.29397 11.6375 9.37572C11.6205 9.3938 11.6058 9.41381 11.5936 9.43532C11.5098 9.5506 11.4304 9.66899 11.3553 9.79051H4.0354C3.9509 9.79051 3.86987 9.8238 3.81013 9.88304C3.75038 9.94229 3.71681 10.0226 3.71681 10.1064V12.739C3.71681 12.8228 3.75038 12.9032 3.81013 12.9624C3.86987 13.0216 3.9509 13.0549 4.0354 13.0549H10.5458C10.5806 13.5941 10.6947 14.1253 10.8845 14.6317H1.9115C1.57365 14.6313 1.24973 14.4981 1.01083 14.2612C0.77193 14.0243 0.637548 13.7031 0.637168 13.368V5.86668H23.3628V13.368C23.3625 13.7031 23.2281 14.0243 22.9892 14.2612C22.7503 14.4981 22.4264 14.6313 22.0885 14.6317ZM0.637168 5.23486V3.42795H23.3628V5.23486H0.637168ZM1.9115 0.631823H22.0885C22.4264 0.632199 22.7503 0.765453 22.9892 1.00235C23.2281 1.23925 23.3625 1.56044 23.3628 1.89547V2.79613H0.637168V1.89547C0.637548 1.56044 0.77193 1.23925 1.01083 1.00235C1.24973 0.765453 1.57365 0.632199 1.9115 0.631823Z" fill="#6E7C89"/>
<path d="M13.3656 11.5021C13.7378 11.5021 13.8002 11.7396 13.813 11.9458C13.8161 12.0458 13.8744 12.1655 14.1335 12.1655C14.3315 12.1655 14.4542 12.1104 14.4542 11.8359C14.4542 11.2816 14.0094 10.9091 13.3474 10.9091C12.6643 10.9091 12.2725 11.3142 12.2725 12.0207V13.3429C12.2725 14.0494 12.6626 14.4545 13.3429 14.4545C14.0077 14.4545 14.4543 14.0669 14.4543 13.4898C14.4543 13.2154 14.3299 13.1602 14.1291 13.1602C13.8791 13.1602 13.8193 13.2792 13.8131 13.379C13.8015 13.5475 13.78 13.8616 13.3747 13.8616C13.0688 13.8616 12.9138 13.6871 12.9138 13.3429V12.0207C12.9137 11.6766 13.0658 11.5021 13.3656 11.5021Z" fill="#6E7C89"/>
<path d="M17.0345 10.9094C16.8701 10.9094 16.8148 10.987 16.7976 11.0515L16.0935 13.5301L15.3849 11.052C15.3675 10.9868 15.3123 10.9091 15.1479 10.9091C14.9724 10.9091 14.7275 11.0165 14.7275 11.1914C14.729 11.2092 14.7324 11.2269 14.7376 11.244L14.7639 11.2387L14.7379 11.2451L15.665 14.2281C15.7122 14.3678 15.8764 14.4545 16.0936 14.4545C16.2675 14.4545 16.4715 14.3948 16.5223 14.2274L17.4444 11.245L17.4473 11.234C17.4517 11.2201 17.4542 11.2058 17.4548 11.1912C17.4548 11.0193 17.2059 10.9094 17.0345 10.9094Z" fill="#6E7C89"/>
<path d="M19.7609 10.9094C19.5965 10.9094 19.5413 10.987 19.524 11.0515L18.82 13.5301L18.1114 11.052C18.0941 10.9868 18.0388 10.9091 17.8744 10.9091C17.6989 10.9091 17.4541 11.0165 17.4541 11.1914C17.4556 11.2092 17.4589 11.2269 17.4642 11.244L17.4904 11.2387L17.4645 11.2451L18.3915 14.2281C18.4387 14.3678 18.6029 14.4545 18.8201 14.4545C18.994 14.4545 19.1979 14.3948 19.2488 14.2274L20.171 11.2454L20.1739 11.2344C20.1782 11.2205 20.1808 11.2061 20.1814 11.1916C20.1812 11.0193 19.9323 10.9094 19.7609 10.9094Z" fill="#6E7C89"/>
</svg>
