<svg width="24" height="18" viewBox="0 0 24 18" fill="none" xmlns="http://www.w3.org/2000/svg">
<path d="M24 15.8569C24 16.6405 23.3648 17.2757 22.5813 17.2757H1.41867C0.635156 17.2758 0 16.6405 0 15.8569V2.14301C0 1.35949 0.635156 0.724289 1.41867 0.724289H22.5813C23.3649 0.724289 24 1.35949 24 2.14301V15.8569Z" fill="#306FC5"/>
<path d="M3.49609 7.34769H4.21319L3.85473 6.43504L3.49609 7.34769Z" fill="white"/>
<path d="M7.30957 10.4114V10.8352H8.51562V11.2916H7.30957V11.7807H8.64593L9.2652 11.096L8.67855 10.4114H7.30957Z" fill="white"/>
<path d="M16.73 6.43504L16.3389 7.34769H17.0886L16.73 6.43504Z" fill="white"/>
<path d="M10.7977 12.0411V10.1833L9.9502 11.096L10.7977 12.0411Z" fill="white"/>
<path d="M12.3947 10.7049C12.362 10.5093 12.2315 10.4114 12.0359 10.4114H11.3516V10.9981H12.0687C12.2642 10.9981 12.3947 10.9004 12.3947 10.7049Z" fill="white"/>
<path d="M14.6763 10.9331C14.7415 10.9004 14.7742 10.8025 14.7742 10.7049C14.8068 10.5747 14.7415 10.5094 14.6763 10.4767C14.6113 10.4441 14.5133 10.4441 14.4157 10.4441H13.7637V10.9657H14.4157C14.5133 10.9657 14.6112 10.9657 14.6763 10.9331Z" fill="white"/>
<path d="M19.3696 5.58743V5.97856L19.1742 5.58743H17.6424V5.97856L17.4468 5.58743H15.3608C15.0023 5.58743 14.7088 5.65268 14.4481 5.78304V5.58743H12.9815V5.62006V5.78304C12.8185 5.65273 12.623 5.58743 12.3622 5.58743H7.11455L6.75586 6.40231L6.39741 5.58743H5.22408H4.73513V5.97856L4.57214 5.58743H4.53952H3.138L2.48602 7.11931L1.73644 8.78159L1.72266 8.81426H1.73644H3.39877H3.41958L3.43139 8.78159L3.62705 8.29278H4.05075L4.24631 8.81426H6.13659V8.78159V8.42314L6.29967 8.81421H7.24481L7.4077 8.42314V8.78159V8.81426H8.15738H11.9057H11.9384V7.96676H12.0037C12.0688 7.96676 12.0688 7.96676 12.0688 8.06459V8.78164H14.4156V8.58607C14.6112 8.684 14.9043 8.78164 15.2955 8.78164H16.2735L16.469 8.26025H16.9252L17.1208 8.78164H19.0111V8.45576V8.29282L19.3046 8.78164H19.3696H19.4024H20.8365V5.58743H19.3697H19.3696ZM8.32045 8.32545H7.99444H7.79892V8.13003V6.53271L7.7663 6.60748V6.60659L7.00805 8.32545H6.98405H6.80972H6.52767L5.74547 6.53271V8.32545H4.63734L4.4092 7.83654H3.30089L3.0727 8.32545H2.49975L3.46397 6.04381H4.27875L5.19136 8.22757V6.04381H5.38688H6.05489L6.07027 6.07648H6.07139L6.48263 6.97151L6.77794 7.64211L6.78839 7.60831L7.44024 6.04385H8.32041V8.32545H8.32045ZM10.5695 6.53271H9.29831V6.95642H10.5369V7.4127H9.29831V7.86917H10.5695V8.35793H8.74425V6.04385H10.5695V6.53271ZM12.8943 7.37318C12.8951 7.37393 12.8962 7.37445 12.8972 7.37515C12.9096 7.38818 12.9201 7.40126 12.9291 7.41378C12.9915 7.49562 13.042 7.61736 13.0446 7.79586C13.0448 7.79895 13.0449 7.802 13.0451 7.80509C13.0451 7.80687 13.0454 7.80842 13.0454 7.81025C13.0454 7.81128 13.0453 7.81207 13.0453 7.81306C13.0461 7.83101 13.0465 7.84934 13.0465 7.86917V8.3255H12.5577V8.06464C12.5577 7.93428 12.5577 7.73867 12.4598 7.60831C12.429 7.57751 12.3978 7.55721 12.3639 7.54278C12.315 7.51114 12.2225 7.51062 12.0688 7.51062H11.4819V8.3255H10.928V6.04385H12.1666C12.4598 6.04385 12.6555 6.04385 12.8185 6.14164C12.9782 6.23754 13.0747 6.39659 13.0783 6.64845C13.0708 6.99532 12.8481 7.18564 12.688 7.24981C12.688 7.24981 12.7968 7.2717 12.8943 7.37318ZM13.9919 8.32545H13.4377V6.04381H13.9919V8.32545ZM20.3477 8.32545H19.6305L18.5876 6.59787V8.03201L18.5842 8.02864V8.32686H18.0335V8.3255H17.4794L17.2838 7.83659H16.1429L15.9473 8.35798H15.3281C15.0675 8.35798 14.7413 8.29287 14.5459 8.09731C14.3503 7.90175 14.2526 7.64098 14.2526 7.21732C14.2526 6.8914 14.3177 6.56525 14.5459 6.30457C14.7087 6.10887 15.0022 6.04385 15.3607 6.04385H15.8823V6.53271H15.3607C15.1651 6.53271 15.0675 6.5652 14.9369 6.66317C14.8393 6.7609 14.774 6.95642 14.774 7.18456C14.774 7.44537 14.8066 7.60831 14.9369 7.73867C15.0349 7.83659 15.1651 7.86921 15.3281 7.86921H15.5562L16.3058 6.07657H16.6319H17.1207L18.0335 8.26034V8.14896V7.41279V7.34768V6.07662H18.8483L19.7933 7.67365V6.07662H20.3476V8.32554H20.3477V8.32545Z" fill="white"/>
<path d="M12.4291 6.9942C12.4386 6.98403 12.4472 6.9725 12.4545 6.95928C12.4841 6.91255 12.5179 6.82836 12.4997 6.71347C12.4989 6.70292 12.497 6.69317 12.4947 6.68375C12.4941 6.68113 12.4942 6.67883 12.4935 6.6762L12.4932 6.67625C12.477 6.62042 12.4356 6.58611 12.3943 6.5653C12.3289 6.53281 12.2312 6.53281 12.1334 6.53281H11.4814V7.05439H12.1334C12.2312 7.05439 12.329 7.05439 12.3943 7.02172C12.4041 7.01675 12.4128 7.01 12.4212 7.00236L12.4213 7.00278C12.4213 7.00278 12.4247 6.99927 12.4291 6.9942Z" fill="white"/>
<path d="M22.2702 11.585C22.2702 11.3569 22.2051 11.1286 22.1074 10.9657V9.49902H22.1059V9.40109C22.1059 9.40109 20.7397 9.40109 20.5363 9.40109C20.3331 9.40109 20.0864 9.59661 20.0864 9.59661V9.40109H18.5872C18.3589 9.40109 18.0657 9.46634 17.9352 9.59661V9.40109H15.2626V9.49902V9.59656C15.0671 9.43372 14.7083 9.40105 14.5455 9.40105H12.7854V9.49897V9.59652C12.6224 9.43367 12.2311 9.401 12.0355 9.401H10.0801L9.6237 9.88995L9.19994 9.401H9.06349H8.84144H6.2666V9.49892V9.75641V12.6932H9.13488L9.60616 12.2218L10.0147 12.6932H10.0474H11.7001H11.775H11.8076H11.8401V12.3673V11.9435H12.0032C12.2311 11.9435 12.5246 11.9435 12.7527 11.8456V12.6604V12.7258H14.2195V12.6604V11.8783H14.2845C14.3824 11.8783 14.3824 11.8783 14.3824 11.976V12.6604V12.7258H18.8151C19.1087 12.7258 19.4018 12.6604 19.5648 12.53V12.6604V12.7258H20.9664C21.2596 12.7258 21.5531 12.6932 21.7487 12.5627C22.0488 12.3827 22.2379 12.064 22.2661 11.6839C22.2674 11.6726 22.269 11.6614 22.2701 11.6501L22.2681 11.6482C22.2694 11.6271 22.2702 11.6063 22.2702 11.585ZM12.0032 11.3895H11.3512V11.487V11.6827V11.8783V12.2368H10.2799L9.65632 11.5197L9.65416 11.5221L9.6237 11.487L8.90665 12.2368H6.82066V9.9553H8.93927L9.51809 10.5893L9.63977 10.722L9.65627 10.7049L10.3408 9.95534H12.0683C12.4035 9.95534 12.7789 10.0381 12.9212 10.3792C12.9383 10.4467 12.9483 10.5218 12.9483 10.6071C12.9483 11.259 12.4919 11.3895 12.0032 11.3895ZM15.2626 11.3568C15.3277 11.4544 15.3603 11.585 15.3603 11.7806V12.2368H14.8063V11.9435C14.8063 11.813 14.8063 11.585 14.7084 11.487C14.6434 11.3895 14.5128 11.3895 14.3174 11.3895H13.7307V12.2368H13.1767V9.92267H14.4152C14.6757 9.92267 14.9039 9.92267 15.0671 10.0204C15.23 10.1182 15.3603 10.2812 15.3603 10.542C15.3603 10.9004 15.1323 11.096 14.9692 11.1613C15.1323 11.2262 15.23 11.2916 15.2626 11.3568ZM17.5116 10.4114H16.2403V10.8351H17.4789V11.2916H16.2403V11.7479H17.5116V12.2368H15.6864V9.92263H17.5116V10.4114ZM18.8805 12.2368H17.8374V11.748H18.8805C18.9781 11.748 19.0434 11.748 19.1088 11.6827C19.1414 11.6501 19.1738 11.585 19.1738 11.5198C19.1738 11.4544 19.1414 11.3895 19.1088 11.3569C19.076 11.3243 19.0107 11.2917 18.913 11.2917C18.3915 11.259 17.7722 11.2917 17.7722 10.5747C17.7722 10.2487 17.9678 9.89009 18.5545 9.89009H19.6301V10.4441H18.6197C18.522 10.4441 18.4567 10.4441 18.3914 10.4767C18.3264 10.5094 18.3264 10.5747 18.3264 10.6398C18.3264 10.7376 18.3914 10.7702 18.4566 10.8026C18.522 10.8352 18.5871 10.8352 18.6522 10.8352H18.9456C19.239 10.8352 19.4345 10.9004 19.5649 11.0308C19.6627 11.1287 19.7279 11.2917 19.7279 11.5198C19.7279 12.0085 19.4345 12.2368 18.8805 12.2368ZM21.6836 12.0085C21.5533 12.1391 21.3251 12.2368 20.999 12.2368H19.9562V11.748H20.9989C21.0968 11.748 21.1621 11.748 21.2272 11.6827C21.2597 11.6501 21.2924 11.585 21.2924 11.5198C21.2924 11.4544 21.2597 11.3895 21.2272 11.3569C21.1946 11.3243 21.1295 11.2917 21.0317 11.2917C20.5103 11.259 19.8909 11.2917 19.8909 10.5747C19.8909 10.2649 20.0681 9.98506 20.5052 9.90195C20.5575 9.89474 20.6127 9.89009 20.6732 9.89009H21.7489V10.4441H21.0317H20.771H20.7384C20.6405 10.4441 20.5754 10.4441 20.5103 10.4767C20.4775 10.5094 20.4449 10.5747 20.4449 10.6398C20.4449 10.7376 20.4775 10.7702 20.5754 10.8026C20.6405 10.8352 20.7057 10.8352 20.771 10.8352H20.8034H21.0642C21.2067 10.8352 21.3144 10.8528 21.413 10.8875C21.5033 10.9201 21.8021 11.0538 21.869 11.4028C21.8748 11.4394 21.8791 11.4775 21.8791 11.5198C21.8791 11.7154 21.8139 11.8783 21.6836 12.0085Z" fill="white"/>
</svg>
