<svg width="24" height="16" viewBox="0 0 24 16" fill="none" xmlns="http://www.w3.org/2000/svg">
<g clip-path="url(#clip0_358_1320)">
<path fill-rule="evenodd" clip-rule="evenodd" d="M22.3998 0.400002H1.6C0.7164 0.400002 0 1.118 0 2.0016V13.9984C0 14.883 0.7182 15.6 1.6002 15.6H22.4C23.2838 15.6 24.0002 14.882 24.0002 13.9984V2.0016C24 1.117 23.2818 0.400002 22.3998 0.400002Z" fill="#F4F4F4"/>
<path fill-rule="evenodd" clip-rule="evenodd" d="M22.2002 15.6C23.4002 15.6 24.0002 15 24.0002 13.8V6.6672C24 6.6676 20.4236 12.9664 7.43164 15.6H22.2002Z" fill="#E87E04"/>
<path fill-rule="evenodd" clip-rule="evenodd" d="M7.80592 7.7416H8.02152L8.68912 8.7382H8.69252V7.7416H8.85692V8.954H8.64812L7.97372 7.9574H7.97012V8.954H7.80592V7.7416ZM9.16832 7.7416H9.95072V7.8956H9.33272V8.257H9.90792V8.411H9.33272V8.8H9.98152V8.954H9.16812V7.7418L9.16832 7.7416ZM10.4675 7.8956H10.0773V7.7416H11.0221V7.8956H10.6321V8.954H10.4677L10.4675 7.8956ZM11.0427 7.7416H11.2139L11.4809 8.7108H11.4843L11.7703 7.7416H11.9583L12.2443 8.7108H12.2477L12.5147 7.7416H12.6859L12.3333 8.954H12.1605L11.8659 7.964H11.8625L11.5699 8.954H11.3969L11.0427 7.7416ZM13.3997 8.9848C13.3073 8.9848 13.2223 8.9686 13.1447 8.936C13.0697 8.90536 13.0018 8.85971 12.9452 8.80186C12.8885 8.74401 12.8442 8.67518 12.8151 8.5996C12.7833 8.51944 12.7673 8.43385 12.7681 8.3476C12.7681 8.2576 12.7837 8.1736 12.8151 8.096C12.8442 8.02038 12.8884 7.95151 12.9451 7.89363C13.0018 7.83574 13.0697 7.79006 13.1447 7.7594C13.2256 7.7263 13.3123 7.70977 13.3997 7.7108C13.4921 7.7108 13.5771 7.7268 13.6547 7.7596C13.7297 7.79024 13.7976 7.83589 13.8543 7.89374C13.911 7.95159 13.9552 8.02042 13.9843 8.096C14.0155 8.1736 14.0313 8.2576 14.0313 8.3478C14.0313 8.4378 14.0155 8.5218 13.9843 8.5996C13.9552 8.67522 13.911 8.74409 13.8543 8.80197C13.7976 8.85986 13.7297 8.90554 13.6547 8.9362C13.5738 8.9693 13.4871 8.98583 13.3997 8.9848ZM13.3997 8.8308C13.4693 8.8308 13.5321 8.8178 13.5879 8.7922C13.6439 8.7664 13.6919 8.732 13.7319 8.6886C13.7717 8.6452 13.8025 8.594 13.8241 8.5352C13.8459 8.4764 13.8567 8.414 13.8567 8.3478C13.8567 8.2816 13.8459 8.219 13.8241 8.1602C13.8037 8.10354 13.7723 8.05148 13.7317 8.007C13.6917 7.9636 13.6437 7.929 13.5879 7.9034C13.5287 7.87701 13.4645 7.86384 13.3997 7.8648C13.3349 7.86381 13.2706 7.87699 13.2113 7.9034C13.1553 7.929 13.1075 7.9636 13.0677 8.007C13.0277 8.0504 12.9969 8.1014 12.9751 8.1602C12.9532 8.22031 12.9423 8.28384 12.9427 8.3478C12.9427 8.4138 12.9535 8.4764 12.9751 8.5352C12.9952 8.59168 13.0265 8.64352 13.0671 8.68764C13.1077 8.73177 13.1567 8.76726 13.2113 8.792C13.2673 8.818 13.3301 8.8308 13.3997 8.8308ZM14.2675 7.7416H14.6937C14.7713 7.7416 14.8353 7.7522 14.8855 7.7732C14.9355 7.7944 14.9753 7.8212 15.0043 7.8538C15.0335 7.8862 15.0537 7.9228 15.0651 7.9634C15.0765 8.0038 15.0823 8.043 15.0823 8.0806C15.0827 8.15797 15.0543 8.23273 15.0027 8.2904C14.976 8.32033 14.9442 8.34525 14.9087 8.364C14.8715 8.384 14.8301 8.3962 14.7845 8.4008L15.1285 8.954H14.9231L14.6151 8.4196H14.4319V8.954H14.2675V7.7416ZM14.4319 8.2758H14.6475C14.6795 8.2758 14.7111 8.2732 14.7425 8.2682C14.7739 8.263 14.8019 8.2536 14.8265 8.2398C14.8512 8.22591 14.8716 8.2055 14.8855 8.1808C14.9015 8.14996 14.909 8.11548 14.9075 8.0808C14.9091 8.04598 14.9015 8.01136 14.8855 7.9804C14.8716 7.95567 14.8511 7.93526 14.8263 7.9214C14.8002 7.9072 14.7719 7.89765 14.7425 7.8932C14.7111 7.88803 14.6793 7.88542 14.6475 7.8854H14.4319V8.2758ZM15.3133 7.7416H15.4777V8.2656H15.4913L16.0273 7.7416H16.2565L15.6711 8.3016L16.2959 8.954H16.0561L15.4911 8.3478H15.4775V8.9538H15.3131L15.3133 7.7416ZM2.12012 3.9842H3.25012C3.43912 3.9842 3.62132 4.0134 3.79692 4.0714C3.97232 4.1294 4.12752 4.218 4.26252 4.3368C4.39752 4.4556 4.50552 4.6048 4.58652 4.7846C4.66752 4.9642 4.70812 5.1756 4.70812 5.4186C4.70812 5.6646 4.66152 5.8772 4.56832 6.0568C4.48107 6.22922 4.35823 6.38116 4.20792 6.5026C4.06195 6.6194 3.8959 6.7086 3.71792 6.7658C3.54739 6.82244 3.369 6.85186 3.18932 6.853H2.12012V3.9842ZM3.01112 6.391C3.17052 6.391 3.32112 6.373 3.46272 6.3364C3.59597 6.30392 3.72177 6.24621 3.83332 6.1664C3.93956 6.08822 4.02505 5.98523 4.08232 5.8664C4.14312 5.7434 4.17352 5.5944 4.17352 5.4186C4.17352 5.2458 4.14652 5.0972 4.09252 4.973C4.03852 4.8486 3.96352 4.748 3.86772 4.671C3.76712 4.59169 3.65134 4.53384 3.52752 4.501C3.38687 4.46324 3.24174 4.4448 3.09612 4.4462H2.63052V6.391H3.01112ZM5.18212 3.9842H5.69252V6.853H5.18212V3.9842ZM7.72552 4.6002C7.6722 4.5224 7.59674 4.46241 7.50892 4.428C7.36363 4.36942 7.20373 4.3574 7.05132 4.3936C6.9979 4.40622 6.94712 4.42816 6.90132 4.4584C6.85701 4.48791 6.82028 4.52744 6.79412 4.5738C6.76605 4.62526 6.75205 4.6832 6.75352 4.7418C6.75352 4.8392 6.78732 4.9136 6.85472 4.9648C6.92232 5.0162 7.00592 5.0608 7.10592 5.0986C7.20592 5.1364 7.31512 5.1728 7.43392 5.208C7.55272 5.243 7.66192 5.2916 7.76192 5.354C7.86192 5.416 7.94552 5.4984 8.01312 5.601C8.08052 5.7036 8.11432 5.84 8.11432 6.0102C8.11432 6.1642 8.08592 6.2986 8.02932 6.4134C7.97538 6.52463 7.89704 6.62226 7.80012 6.699C7.70065 6.7765 7.58728 6.83427 7.46612 6.8692C7.33586 6.90754 7.2007 6.92667 7.06492 6.926C6.88963 6.92646 6.71561 6.89627 6.55072 6.8368C6.38472 6.77649 6.23785 6.67292 6.12532 6.5368L6.51012 6.1642C6.57212 6.2588 6.65392 6.3322 6.75512 6.385C6.90895 6.46577 7.08765 6.48535 7.25532 6.4398C7.31472 6.4236 7.36872 6.3992 7.41732 6.3668C7.46592 6.3344 7.50512 6.2932 7.53472 6.2432C7.56452 6.1932 7.57932 6.1358 7.57932 6.071C7.57932 5.9656 7.54552 5.8846 7.47812 5.8278C7.40275 5.76655 7.3179 5.71798 7.22692 5.684C7.11923 5.64218 7.0098 5.60502 6.89892 5.5726C6.7838 5.53904 6.67354 5.49063 6.57092 5.4286C6.47026 5.36716 6.38447 5.28417 6.31972 5.1856C6.25232 5.0844 6.21852 4.9486 6.21852 4.7784C6.21852 4.6298 6.24892 4.5016 6.30972 4.3936C6.37052 4.2856 6.45012 4.1956 6.54852 4.124C6.65068 4.05071 6.76526 3.99651 6.88672 3.964C7.15856 3.88878 7.44643 3.89441 7.71512 3.9802C7.85672 4.0262 7.98432 4.1018 8.09772 4.2072L7.72532 4.6L7.72552 4.6002ZM10.6131 4.6568C10.5079 4.5434 10.4059 4.4678 10.3073 4.43C10.2125 4.39286 10.1116 4.3736 10.0097 4.3732C9.86132 4.3732 9.72692 4.3996 9.60672 4.4522C9.4894 4.50288 9.38391 4.57739 9.29692 4.671C9.20961 4.76572 9.14155 4.87651 9.09652 4.9972C9.0485 5.12546 9.02444 5.26145 9.02552 5.3984C9.02552 5.5524 9.04912 5.6942 9.09652 5.8238C9.14372 5.9534 9.21052 6.0656 9.29692 6.1602C9.38332 6.2546 9.48652 6.329 9.60692 6.383C9.72692 6.437 9.86132 6.464 10.0097 6.464C10.1274 6.46363 10.2434 6.43518 10.3479 6.381C10.4573 6.3256 10.5591 6.237 10.6537 6.1156L11.0749 6.4154C10.9453 6.5936 10.7873 6.7234 10.6009 6.8044C10.4131 6.88576 10.2104 6.92717 10.0057 6.926C9.78432 6.926 9.58112 6.89 9.39612 6.8186C9.21761 6.75114 9.0549 6.64766 8.91812 6.5146C8.78235 6.38038 8.67555 6.21973 8.60432 6.0426C8.52872 5.859 8.49092 5.655 8.49092 5.4308C8.49092 5.2012 8.52892 4.9926 8.60432 4.8048C8.67485 4.6249 8.78175 4.4615 8.91832 4.3248C9.05465 4.19069 9.21745 4.08647 9.39632 4.0188C9.58112 3.9472 9.78432 3.9114 10.0057 3.9114C10.2001 3.9114 10.3803 3.9458 10.5463 4.0146C10.7123 4.0836 10.8669 4.2004 11.0101 4.3652L10.6131 4.6568ZM14.4607 3.9842H15.0479L15.8295 6.1522L16.6355 3.9842H17.1863L16.0281 6.853H15.5861L14.4601 3.9842H14.4607ZM17.4941 3.9842H19.3935V4.4462H18.0045V5.1512H19.3205V5.6132H18.0045V6.3912H19.4665V6.853H17.4941V3.9842ZM19.9687 3.9842H20.9649C21.1027 3.9842 21.2357 3.9972 21.3639 4.0228C21.485 4.04566 21.6009 4.09025 21.7061 4.1544C21.8061 4.2164 21.8857 4.3004 21.9451 4.4056C22.0045 4.511 22.0341 4.6448 22.0341 4.8068C22.0341 5.0148 21.9769 5.189 21.8621 5.3294C21.7473 5.47 21.5833 5.555 21.3701 5.5848L22.1313 6.853H21.5157L20.8517 5.6374H20.4789V6.853H19.9687V3.9842ZM20.8757 5.2C20.9485 5.2 21.0215 5.1966 21.0943 5.19C21.1633 5.18417 21.231 5.16771 21.2949 5.1412C21.3542 5.11671 21.4054 5.07602 21.4427 5.0238C21.4805 4.9712 21.4993 4.8974 21.4993 4.803C21.4993 4.7192 21.4819 4.6516 21.4467 4.6004C21.4125 4.54978 21.3649 4.50973 21.3091 4.4848C21.2493 4.45831 21.1858 4.44124 21.1207 4.4342C21.0542 4.42629 20.9873 4.42228 20.9203 4.4222H20.4787V5.2H20.8757Z" fill="black"/>
<path d="M12.9078 6.928C13.7403 6.928 14.4152 6.25275 14.4152 5.4198C14.4152 4.58684 13.7403 3.9116 12.9078 3.9116C12.0753 3.9116 11.4004 4.58684 11.4004 5.4198C11.4004 6.25275 12.0753 6.928 12.9078 6.928Z" fill="#E87E04"/>
</g>
<defs>
<clipPath id="clip0_358_1320">
<rect width="24" height="15.2" fill="white" transform="translate(0 0.400002)"/>
</clipPath>
</defs>
</svg>
