<svg width="60" height="23" viewBox="0 0 60 23" fill="none" xmlns="http://www.w3.org/2000/svg">
<path d="M40.7933 12.8355L41.3839 13.0127C41.3445 13.18 41.2854 13.3178 41.1968 13.4261C41.1083 13.5344 41.0098 13.6229 40.8819 13.6722C40.7539 13.7312 40.5964 13.7607 40.3995 13.7607C40.1633 13.7607 39.9763 13.7312 39.8188 13.6623C39.6712 13.5934 39.5432 13.4753 39.4349 13.2981C39.3266 13.1308 39.2676 12.9044 39.2676 12.6386C39.2676 12.2843 39.366 12.0087 39.553 11.8118C39.7401 11.6149 40.0157 11.5263 40.3602 11.5263C40.6358 11.5263 40.8425 11.5854 41 11.6937C41.1575 11.8019 41.2756 11.9693 41.3445 12.2055L40.7539 12.3335C40.7342 12.2646 40.7145 12.2154 40.685 12.1858C40.6456 12.1366 40.6063 12.0972 40.5472 12.0677C40.4881 12.0382 40.4291 12.0283 40.37 12.0283C40.2224 12.0283 40.1043 12.0874 40.0255 12.2154C39.9664 12.3039 39.9369 12.4516 39.9369 12.6386C39.9369 12.8749 39.9763 13.0422 40.0452 13.1308C40.1141 13.2194 40.2224 13.2686 40.3503 13.2686C40.4783 13.2686 40.5767 13.2292 40.6358 13.1603C40.7145 13.0717 40.7637 12.9733 40.7933 12.8355Z" fill="#225E63"/>
<path d="M41.6201 12.6386C41.6201 12.2843 41.7185 12.0087 41.9154 11.8118C42.1123 11.6149 42.3879 11.5165 42.7422 11.5165C43.1064 11.5165 43.3821 11.6149 43.5789 11.802C43.7758 11.9988 43.8742 12.2646 43.8742 12.619C43.8742 12.8749 43.8348 13.0816 43.7462 13.2391C43.6577 13.3966 43.5395 13.5245 43.3722 13.6131C43.2147 13.7017 43.008 13.7509 42.7718 13.7509C42.5257 13.7509 42.3288 13.7115 42.1615 13.6328C42.004 13.5541 41.876 13.4359 41.7678 13.2588C41.6595 13.0816 41.6201 12.8946 41.6201 12.6386ZM42.2895 12.6386C42.2895 12.8552 42.3288 13.0127 42.4076 13.1111C42.4863 13.2095 42.5946 13.2588 42.7422 13.2588C42.8899 13.2588 42.9982 13.2095 43.0769 13.121C43.1557 13.0225 43.195 12.8552 43.195 12.619C43.195 12.4122 43.1557 12.2646 43.0671 12.176C42.9883 12.0776 42.8702 12.0382 42.7324 12.0382C42.5946 12.0382 42.4863 12.0874 42.4076 12.1858C42.3288 12.2646 42.2895 12.4221 42.2895 12.6386Z" fill="#225E63"/>
<path d="M44.2199 11.5559H45.0959L45.4306 12.8749L45.7653 11.5559H46.6413V13.7214H46.0901V12.0677L45.6668 13.7214H45.1747L44.7514 12.0677V13.7214H44.2002V11.5559H44.2199Z" fill="#225E63"/>
<path d="M47.0732 11.5559H48.1855C48.4316 11.5559 48.6088 11.6149 48.7269 11.7331C48.845 11.8512 48.9041 12.0087 48.9041 12.2252C48.9041 12.4418 48.8352 12.6189 48.7072 12.7371C48.5793 12.865 48.3725 12.9241 48.1068 12.9241H47.7426V13.7312H47.0732V11.5559ZM47.7426 12.4811H47.9099C48.0379 12.4811 48.1265 12.4615 48.1855 12.4122C48.2347 12.363 48.2643 12.3138 48.2643 12.2449C48.2643 12.176 48.2446 12.1169 48.1954 12.0677C48.1462 12.0185 48.0674 11.9988 47.9394 11.9988H47.7524V12.4811H47.7426Z" fill="#225E63"/>
<path d="M49.2588 11.5559H49.9281V13.1898H50.9715V13.7214H49.2588V11.5559Z" fill="#225E63"/>
<path d="M51.3076 11.5559H51.977V13.7214H51.3076V11.5559Z" fill="#225E63"/>
<path d="M53.7876 13.3572H53.0296L52.9214 13.7116H52.2422L53.0592 11.5461H53.7876L54.6046 13.7116H53.9057L53.7876 13.3572ZM53.6498 12.8946L53.4135 12.117L53.1773 12.8946H53.6498Z" fill="#225E63"/>
<path d="M54.8096 11.5559H55.4297L56.2467 12.7567V11.5559H56.8766V13.7214H56.2467L55.4395 12.5304V13.7214H54.8096V11.5559Z" fill="#225E63"/>
<path d="M57.1709 11.5559H59.2084V12.0874H58.5293V13.7214H57.8599V12.0874H57.1807V11.5559H57.1709Z" fill="#225E63"/>
<path d="M32.7417 14.8534L34.6808 14.2431L34.0508 12.8454C33.5882 13.4261 33.1256 14.1742 32.7417 14.8534ZM32.0822 8.46516L28.2827 0L0.46582 1.57491L8.17305 22.6L23.0068 17.9245C22.0618 16.5661 21.7173 14.9518 22.8099 14.1644C24.0305 13.2785 25.8711 14.3022 27.0425 15.7491C28.1744 13.8592 31.3538 9.45932 32.0822 8.46516Z" fill="#225E63"/>
<path d="M27.417 6.11749C28.5785 6.11749 29.5234 5.2316 29.5234 4.12917C29.5234 3.02673 28.5785 2.14084 27.417 2.14084C26.2555 2.14084 25.3105 3.02673 25.3105 4.12917C25.3105 5.22176 26.2555 6.11749 27.417 6.11749ZM25.6944 6.97385H29.1396V15.9804H25.6944V6.97385Z" fill="#FEFEFE"/>
<path d="M23.99 9.60197C24.0195 9.61181 24.0392 9.60197 24.0392 9.57244V7.28881C24.0392 7.25929 24.0195 7.22976 23.99 7.21007C23.99 7.21007 23.5372 6.91477 22.1592 6.83603C22.0903 6.79665 20.8795 6.78681 20.5547 6.83603C15.5347 7.2396 15.3477 10.8717 15.3477 11.0292V11.9151C15.3477 12.0234 15.3477 15.7343 20.5547 16.0591C21.0666 16.0985 22.0607 16.0591 22.1592 16.0591C23.36 16.0591 24.1869 15.6949 24.1869 15.6949C24.2164 15.6851 24.2361 15.6555 24.2361 15.626V13.49C24.2361 13.4605 24.2164 13.4507 24.1967 13.4703C24.1967 13.4703 23.8227 13.7656 22.1887 13.933C21.7261 13.9822 21.4997 13.9625 21.3323 13.933C19.0093 13.5393 18.9011 11.8462 18.9011 11.8462C18.9011 11.8167 18.8912 11.7675 18.8912 11.7478V11.0981C18.8912 11.0686 18.8912 11.0194 18.9011 10.9997C18.9011 10.9997 19.0585 9.17871 21.3323 8.98185H22.1887C23.1828 9.10981 23.99 9.60197 23.99 9.60197Z" fill="#FEFEFE"/>
<path d="M5.78125 15.9509C5.78125 15.9805 5.80094 16.0001 5.83047 16.0001H9.187C9.21653 16.0001 9.23622 15.9805 9.23622 15.9509V13.3326C9.23622 13.3031 9.2559 13.2834 9.28543 13.2834C9.28543 13.2834 14.65 13.6673 14.65 10.0745C14.65 7.22984 11.2836 6.92471 10.1812 6.97392C10.1615 6.97392 5.83047 6.97392 5.83047 6.97392C5.80094 6.97392 5.78125 6.99361 5.78125 7.02314V15.9509ZM9.17716 11.2852V8.93272H10.004C10.004 8.93272 11.195 8.98194 11.2934 9.79892C11.3131 9.85798 11.3131 10.2616 11.2934 10.2812C11.136 11.236 10.1024 11.2852 10.1024 11.2852H9.17716Z" fill="#FEFEFE"/>
<path d="M27.5159 20.3262C27.7915 20.3262 28.0081 20.3262 28.3624 20.1687C29.583 19.5289 33.7073 9.45932 38.058 6.35871C38.0875 6.33902 38.1171 6.30949 38.1367 6.27996C38.1663 6.24059 38.1663 6.20122 38.1663 6.20122C38.1663 6.20122 38.1663 5.99451 37.5265 5.99451C33.6581 5.88624 29.6322 14.0069 27.5159 17.2158C27.4864 17.2551 27.3486 17.2158 27.3486 17.2158C27.3486 17.2158 25.9312 15.5424 24.7008 14.9026C24.6712 14.8928 24.5334 14.8436 24.3858 14.8534C24.2874 14.8534 23.7164 14.9715 23.4507 15.2471C23.1357 15.5818 23.1455 15.7688 23.1455 16.1724C23.1455 16.2019 23.1652 16.3397 23.2046 16.4086C23.5097 16.9402 24.8779 18.8301 26.0099 19.8734C26.1772 20.0014 26.443 20.3262 27.5159 20.3262Z" fill="#2BBC5D"/>
<path d="M39.1992 3.31717H42.4179C43.0578 3.31717 43.5696 3.40576 43.9535 3.57309C44.3472 3.75027 44.672 3.99635 44.9181 4.31133C45.174 4.63616 45.3611 5.0102 45.4693 5.43346C45.5875 5.85672 45.6465 6.3095 45.6465 6.79182C45.6465 7.5399 45.5579 8.12065 45.3906 8.53407C45.2233 8.94748 44.987 9.292 44.6819 9.57745C44.3767 9.85306 44.0519 10.0401 43.7074 10.1385C43.2349 10.2665 42.8018 10.3255 42.4179 10.3255H39.1992V3.31717ZM41.3647 4.90193V8.73093H41.8963C42.349 8.73093 42.6739 8.68172 42.8609 8.58328C43.0479 8.48485 43.2054 8.30768 43.3137 8.06159C43.422 7.81552 43.481 7.4021 43.481 6.84104C43.481 6.09295 43.3629 5.59095 43.1168 5.31534C42.8707 5.03973 42.477 4.90193 41.9061 4.90193H41.3647Z" fill="#225E63"/>
<path d="M46.2461 8.01235L48.3132 7.88439C48.3624 8.21906 48.451 8.47498 48.5888 8.65216C48.8152 8.93761 49.1302 9.07542 49.5436 9.07542C49.8487 9.07542 50.0948 9.00651 50.2621 8.85886C50.4295 8.71122 50.518 8.54388 50.518 8.35686C50.518 8.17969 50.4393 8.01235 50.2818 7.8647C50.1243 7.71706 49.7503 7.58909 49.1695 7.46113C48.2147 7.24458 47.5454 6.95913 47.132 6.60477C46.7186 6.25042 46.5217 5.79763 46.5217 5.24641C46.5217 4.88221 46.63 4.54754 46.8367 4.22272C47.0434 3.89789 47.3584 3.65181 47.7816 3.46479C48.2049 3.27777 48.7758 3.18918 49.5042 3.18918C50.3999 3.18918 51.0889 3.35651 51.5516 3.69118C52.0241 4.02585 52.2997 4.55738 52.3883 5.28578L50.3409 5.4039C50.2818 5.08892 50.1735 4.86253 49.9964 4.71488C49.8192 4.56723 49.5829 4.49833 49.2778 4.49833C49.0219 4.49833 48.8349 4.54754 48.7069 4.65582C48.5789 4.76409 48.5199 4.89205 48.5199 5.04955C48.5199 5.15782 48.5691 5.2661 48.6774 5.35469C48.7758 5.44327 49.0219 5.53186 49.4058 5.61061C50.3507 5.81731 51.0299 6.02402 51.4433 6.23073C51.8567 6.43744 52.152 6.7032 52.339 7.00834C52.5261 7.31348 52.6146 7.66784 52.6146 8.05172C52.6146 8.50451 52.4867 8.91793 52.2406 9.29197C51.9945 9.67585 51.6402 9.96131 51.1972 10.1582C50.7543 10.355 50.1834 10.4535 49.5042 10.4535C48.3132 10.4535 47.4863 10.2271 47.0237 9.76444C46.5709 9.30181 46.315 8.72106 46.2461 8.01235Z" fill="#225E63"/>
<path d="M53.166 8.01238L55.2331 7.88442C55.2823 8.21909 55.3709 8.47501 55.5087 8.65219C55.7351 8.93764 56.0501 9.07545 56.4635 9.07545C56.7686 9.07545 57.0147 9.00654 57.182 8.8589C57.3494 8.71125 57.438 8.54392 57.438 8.35689C57.438 8.17972 57.3592 8.01238 57.2017 7.86473C57.0442 7.71709 56.6702 7.58912 56.0894 7.46116C55.1347 7.24461 54.4653 6.95916 54.0519 6.6048C53.6483 6.25045 53.4416 5.79766 53.4416 5.24644C53.4416 4.88224 53.5499 4.54757 53.7566 4.22275C53.9633 3.89792 54.2783 3.65184 54.7016 3.46482C55.1248 3.2778 55.6957 3.18921 56.4241 3.18921C57.3198 3.18921 58.0089 3.35654 58.4715 3.69121C58.944 4.02588 59.2196 4.55742 59.3082 5.28581L57.2608 5.40393C57.2017 5.08895 57.0935 4.86256 56.9163 4.71491C56.7391 4.56726 56.5029 4.49836 56.1977 4.49836C55.9418 4.49836 55.7548 4.54757 55.6268 4.65585C55.4989 4.76412 55.4398 4.89208 55.4398 5.04958C55.4398 5.15785 55.489 5.26613 55.5973 5.35472C55.6957 5.44331 55.9418 5.53189 56.3257 5.61064C57.2706 5.81734 57.9498 6.02405 58.3632 6.23076C58.7766 6.43747 59.0719 6.70323 59.259 7.00837C59.446 7.31351 59.5346 7.66787 59.5346 8.05175C59.5346 8.50454 59.4066 8.91796 59.1605 9.292C58.9144 9.67588 58.5601 9.96134 58.1171 10.1582C57.6742 10.3551 57.1033 10.4535 56.4241 10.4535C55.2331 10.4535 54.4063 10.2271 53.9436 9.76447C53.481 9.30184 53.2251 8.72109 53.166 8.01238Z" fill="#225E63"/>
</svg>
