<svg width="24" height="24" viewBox="0 0 24 24" fill="none" xmlns="http://www.w3.org/2000/svg">
<path opacity="0.32" d="M10.2859 3.91C10.2859 3.342 10.8239 2.75 11.6599 2.75C12.4959 2.75 13.0339 3.342 13.0339 3.91C13.0339 4.221 12.9219 4.491 12.7399 4.69C12.6164 4.82138 12.4897 4.94975 12.3599 5.075L12.2799 5.155C12.0957 5.33334 11.9192 5.51951 11.7509 5.713C11.4859 6.025 11.1979 6.436 11.0929 6.943C10.4551 7.04826 9.84898 7.29496 9.31894 7.665L2.22394 12.657C1.29694 13.309 1.05794 14.359 1.39594 15.239C1.72794 16.105 2.58994 16.75 3.70194 16.75H6.00994C6.02594 16.113 6.07094 15.63 6.19394 15.25H3.70394C3.20094 15.25 2.90294 14.977 2.79694 14.702C2.69694 14.441 2.74294 14.126 3.08694 13.883L10.1829 8.893C10.6616 8.56204 11.229 8.38325 11.8109 8.38C12.3987 8.36959 12.9757 8.53765 13.4659 8.862L20.8989 13.872C21.2549 14.113 21.3049 14.432 21.2069 14.695C21.1039 14.973 20.8069 15.25 20.2979 15.25H17.8079C17.9309 15.63 17.9759 16.113 17.9919 16.75H20.2979C21.4229 16.75 22.2879 16.093 22.6139 15.216C22.9439 14.326 22.6869 13.269 21.7369 12.629L14.3039 7.619C13.8163 7.29185 13.2671 7.0673 12.6899 6.959C12.7399 6.878 12.8079 6.787 12.8949 6.685C13.0209 6.536 13.1689 6.387 13.3349 6.221L13.4099 6.149C13.5499 6.009 13.7049 5.857 13.8449 5.704C14.2879 5.224 14.5349 4.589 14.5349 3.909C14.5349 2.367 13.1709 1.25 11.6609 1.25C10.1509 1.25 8.78594 2.367 8.78594 3.91C8.78594 4.10891 8.86496 4.29968 9.00561 4.44033C9.14626 4.58098 9.33703 4.66 9.53594 4.66C9.73485 4.66 9.92562 4.58098 10.0663 4.44033C10.2069 4.29968 10.2859 4.10891 10.2859 3.91Z" fill="#22C55E"/>
<path d="M6 18C6 16.114 6 15.172 6.586 14.586C7.172 14 8.114 14 10 14H14C15.886 14 16.828 14 17.414 14.586C18 15.172 18 16.114 18 18C18 19.886 18 20.828 17.414 21.414C16.828 22 15.886 22 14 22H10C8.114 22 7.172 22 6.586 21.414C6 20.828 6 19.886 6 18Z" fill="#22C55E"/>
</svg>
