<svg width="24" height="25" viewBox="0 0 24 25" fill="none" xmlns="http://www.w3.org/2000/svg">
<path opacity="0.32" d="M2.28099 20.1385C2.36966 20.9971 2.93261 21.6767 3.77688 21.8565C5.1095 22.1402 7.6216 22.481 12 22.481C16.3784 22.481 18.8905 22.1402 20.2232 21.8565C21.0674 21.6767 21.6303 20.9971 21.719 20.1385C21.8505 18.8654 22 16.5279 22 12.481C22 8.4341 21.8505 6.09665 21.719 4.82356C21.6303 3.96494 21.0674 3.28529 20.2231 3.10556C18.8905 2.82186 16.3784 2.48105 12 2.48105C7.6216 2.48105 5.1095 2.82186 3.77688 3.10556C2.93261 3.28529 2.36966 3.96494 2.28099 4.82356C2.14952 6.09665 2 8.4341 2 12.481C2 16.5279 2.14952 18.8654 2.28099 20.1385Z" fill="#28B04C"/>
<path d="M13.9382 14.3369C15.263 13.6393 16.1663 12.2489 16.1663 10.6476C16.1663 8.34655 14.3008 6.48105 11.9996 6.48105C9.69841 6.48105 7.83291 8.34655 7.83291 10.6476C7.83291 12.249 8.73626 13.6394 10.0612 14.337C8.28691 15.013 6.93216 16.5902 6.51251 18.5339C6.45446 18.8029 6.60246 19.0791 6.87341 19.1281C7.84581 19.3041 9.45616 19.481 12.0006 19.481C14.545 19.481 16.1554 19.3041 17.1278 19.1281C17.3977 19.0793 17.5454 18.8041 17.4876 18.5361C17.0685 16.5913 15.7133 15.0131 13.9382 14.3369Z" fill="#28B04B"/>
</svg>
