<svg width="24" height="24" viewBox="0 0 24 24" fill="none" xmlns="http://www.w3.org/2000/svg">
<path d="M15.9173 16.341C15.0548 15.981 13.0043 15.2738 11.7435 14.9018C11.6363 14.868 11.619 14.8628 11.619 14.415C11.619 14.0453 11.7713 13.6733 11.9198 13.3583C12.0803 13.0163 12.2708 12.4403 12.339 11.9243C12.5303 11.7023 12.7905 11.2643 12.9585 10.4295C13.1055 9.69375 13.0365 9.426 12.939 9.17475C12.9293 9.1485 12.918 9.12225 12.9105 9.096C12.8738 8.9235 12.924 8.02725 13.05 7.332C13.137 6.855 13.0275 5.84025 12.3705 5.001C11.9558 4.47075 11.1623 3.819 9.71253 3.729L8.91754 3.72975C7.49254 3.81975 6.69754 4.47075 6.28278 5.001C5.62578 5.84025 5.51704 6.855 5.60329 7.332C5.73004 8.028 5.78029 8.92425 5.74354 9.093C5.73604 9.12225 5.72479 9.1485 5.71428 9.1755C5.61754 9.42675 5.54853 9.6945 5.69553 10.4303C5.86204 11.265 6.12303 11.703 6.31503 11.925C6.38253 12.441 6.57304 13.017 6.73429 13.359C6.85204 13.6095 6.90679 13.95 6.90679 14.4323C6.90679 14.88 6.88953 14.8853 6.78903 14.9168C5.48554 15.3015 3.41029 16.0515 2.63629 16.3905C2.02279 16.6538 1.87354 17.1255 1.87354 17.5515C1.87354 17.9775 1.87354 19.2398 1.87354 19.5188C1.87354 19.797 2.03854 20.2733 2.63629 20.2733C3.09604 20.2733 6.77479 20.2733 8.44578 20.2733C8.94678 20.2733 9.26929 20.2733 9.26929 20.2733H9.41328C9.41328 20.2733 9.74104 20.2733 10.2495 20.2733C11.9273 20.2733 15.6008 20.2733 16.0598 20.2733C16.6568 20.2733 16.8225 19.7978 16.8225 19.5188C16.8225 19.2398 16.8225 17.9775 16.8225 17.5515C16.8225 17.1255 16.5285 16.605 15.9158 16.3418L15.9173 16.341ZM16.032 19.485H2.66179V17.5508C2.66179 17.3123 2.73079 17.2058 2.95279 17.1105C3.69829 16.7843 5.75853 16.041 7.02829 15.666C7.69503 15.4545 7.69503 14.8635 7.69503 14.4315C7.69503 13.8308 7.61553 13.3838 7.44678 13.023C7.31778 12.7485 7.15278 12.2565 7.09579 11.8223L7.06503 11.5883L6.91054 11.4098C6.82579 11.3123 6.61353 11.0063 6.46804 10.275C6.35329 9.70575 6.40428 9.57375 6.44479 9.468C6.46804 9.411 6.48829 9.354 6.50554 9.29025L6.50928 9.27375L6.51303 9.25725C6.59178 8.886 6.48528 7.78575 6.37729 7.191C6.32703 6.91725 6.39004 6.14025 6.90229 5.48625C7.21579 5.08575 7.82404 4.59375 8.94379 4.5165L9.68779 4.51575C10.602 4.578 11.2965 4.90425 11.7518 5.48625C12.2633 6.14025 12.3263 6.918 12.2768 7.1925C12.1658 7.803 12.0615 8.88525 12.1418 9.261L12.1478 9.29025L12.156 9.31875C12.168 9.35925 12.183 9.39975 12.198 9.4395L12.2048 9.459L12.2055 9.4605C12.2498 9.57525 12.3008 9.705 12.1875 10.2758C12.0405 11.0063 11.8283 11.3138 11.7435 11.412L11.5905 11.5898L11.559 11.8223C11.502 12.2558 11.337 12.75 11.208 13.0245C11.0228 13.4183 10.833 13.8923 10.833 14.4165C10.833 14.8493 10.833 15.4418 11.5215 15.6578C12.7523 16.0215 14.7803 16.7198 15.6075 17.0655C15.921 17.1998 16.038 17.4353 16.038 17.5523L16.0335 19.4865L16.032 19.485Z" fill="white" stroke="white"/>
<path d="M19.1835 10.8308V7.692H18.3967V10.8308H15.2572V11.6175H18.3967V14.7563H19.1835V11.6175H22.3222V10.8308H19.1835Z" fill="white" stroke="white"/>
</svg>
