<svg width="24" height="24" viewBox="0 0 24 24" fill="none" xmlns="http://www.w3.org/2000/svg">
<path d="M9.35031 16.848L8.12151 18.0864C7.52631 18.6912 6.73911 18.9984 5.95191 18.9984C5.16471 18.9984 4.37752 18.6912 3.78232 18.0864C2.58232 16.8768 2.58232 14.9184 3.78232 13.7184L5.00151 12.4992L6.35511 11.136L8.95671 8.5056" stroke="white" stroke-width="1.5" stroke-miterlimit="10" stroke-linecap="round" stroke-linejoin="round"/>
<path d="M8.95679 3.7056V6.5856" stroke="white" stroke-width="1.5" stroke-miterlimit="10" stroke-linecap="round" stroke-linejoin="round"/>
<path d="M5.59668 5.0112L7.03668 7.4976" stroke="white" stroke-width="1.5" stroke-miterlimit="10" stroke-linecap="round" stroke-linejoin="round"/>
<path d="M9.35031 16.848L8.12151 18.0864C7.52631 18.6912 6.73911 18.9984 5.95191 18.9984C5.16471 18.9984 4.37752 18.6912 3.78232 18.0864C2.58232 16.8768 2.58232 14.9184 3.78232 13.7184L5.00151 12.4992L6.35511 11.136L8.95671 8.5056" stroke="white" stroke-width="1.5" stroke-miterlimit="10" stroke-linecap="round" stroke-linejoin="round"/>
<path d="M14.6494 7.152L15.8782 5.9136C16.4734 5.3088 17.2606 5.0016 18.0478 5.0016C18.835 5.0016 19.6222 5.3088 20.2174 5.9136C21.4174 7.1232 21.4174 9.0816 20.2174 10.2816L18.9982 11.5008L17.6446 12.864L15.043 15.4944" stroke="white" stroke-width="1.5" stroke-miterlimit="10" stroke-linecap="round" stroke-linejoin="round"/>
<path d="M12.3167 5.0112L10.8767 7.4976" stroke="white" stroke-width="1.5" stroke-miterlimit="10" stroke-linecap="round" stroke-linejoin="round"/>
<path d="M15.0432 20.2944V17.4144" stroke="white" stroke-width="1.5" stroke-miterlimit="10" stroke-linecap="round" stroke-linejoin="round"/>
<path d="M18.4031 18.9984L16.9631 16.5024" stroke="white" stroke-width="1.5" stroke-miterlimit="10" stroke-linecap="round" stroke-linejoin="round"/>
<path d="M11.6831 18.9984L13.1231 16.5024" stroke="white" stroke-width="1.5" stroke-miterlimit="10" stroke-linecap="round" stroke-linejoin="round"/>
</svg>
