<svg width="559" height="527" viewBox="0 0 559 527" fill="none" xmlns="http://www.w3.org/2000/svg">
<mask id="mask0_313_797" style="mask-type:luminance" maskUnits="userSpaceOnUse" x="215" y="111" width="225" height="48">
<path d="M255.483 151.151C255.483 151.151 272.945 131.125 298.42 131.125C298.42 131.125 299.266 115.586 316.65 112.227C334.035 108.868 337.407 124.394 337.407 124.394C337.407 124.394 350.228 117.573 367.51 124.394C384.792 131.214 381.254 151.086 381.254 151.086C381.254 151.086 431.024 149.471 439.562 158.587H215.906C215.906 158.587 220.419 147.433 255.483 151.151Z" fill="white"/>
</mask>
<g mask="url(#mask0_313_797)">
<path opacity="0.5" d="M255.483 151.151C255.483 151.151 272.945 131.125 298.42 131.125C298.42 131.125 299.266 115.586 316.651 112.227C334.035 108.868 337.407 124.394 337.407 124.394C337.407 124.394 350.228 117.573 367.51 124.394C384.792 131.214 381.254 151.086 381.254 151.086C381.254 151.086 431.024 149.471 439.562 158.587H215.906C215.906 158.587 220.419 147.433 255.483 151.151Z" stroke="#263238" stroke-linecap="round" stroke-linejoin="round"/>
</g>
<path d="M255.483 151.151C255.483 151.151 272.945 131.125 298.42 131.125C298.42 131.125 299.266 115.586 316.651 112.227C334.035 108.868 337.407 124.394 337.407 124.394C337.407 124.394 350.228 117.573 367.51 124.394C384.792 131.214 381.254 151.086 381.254 151.086C381.254 151.086 431.024 149.471 439.562 158.587H215.906C215.906 158.587 220.419 147.433 255.483 151.151Z" stroke="#263238" stroke-linecap="round" stroke-linejoin="round"/>
<mask id="mask1_313_797" style="mask-type:luminance" maskUnits="userSpaceOnUse" x="252" y="1" width="180" height="38">
<path d="M399.78 32.4184C399.78 32.4184 385.844 16.4567 365.536 16.4567C365.536 16.4567 364.856 4.0591 350.997 1.37959C337.138 -1.29993 334.433 11.0848 334.433 11.0848C334.433 11.0848 324.176 5.64887 310.433 11.0848C296.689 16.5208 299.458 32.3799 299.458 32.3799C299.458 32.3799 259.714 31.0979 252.958 38.3544H431.344C431.344 38.3544 427.742 29.4568 399.78 32.4184Z" fill="white"/>
</mask>
<g mask="url(#mask1_313_797)">
<path opacity="0.5" d="M399.78 32.4184C399.78 32.4184 385.844 16.4567 365.536 16.4567C365.536 16.4567 364.856 4.0591 350.997 1.37959C337.138 -1.29993 334.433 11.0848 334.433 11.0848C334.433 11.0848 324.176 5.64887 310.433 11.0848C296.689 16.5208 299.458 32.3799 299.458 32.3799C299.458 32.3799 259.714 31.0979 252.958 38.3544H431.344C431.344 38.3544 427.742 29.4568 399.78 32.4184Z" stroke="#263238" stroke-linecap="round" stroke-linejoin="round"/>
</g>
<path d="M399.78 32.4184C399.78 32.4184 385.844 16.4567 365.536 16.4567C365.536 16.4567 364.856 4.0591 350.997 1.37959C337.138 -1.29993 334.433 11.0848 334.433 11.0848C334.433 11.0848 324.176 5.64887 310.433 11.0848C296.689 16.5208 299.458 32.3799 299.458 32.3799C299.458 32.3799 259.714 31.0979 252.958 38.3544H431.344C431.344 38.3544 427.742 29.4568 399.78 32.4184Z" stroke="#263238" stroke-linecap="round" stroke-linejoin="round"/>
<mask id="mask2_313_797" style="mask-type:luminance" maskUnits="userSpaceOnUse" x="57" y="69" width="107" height="23">
<path d="M76.404 87.8934C76.404 87.8934 84.6733 78.4061 96.7503 78.4061C96.9777 76.1607 97.9512 74.0564 99.5154 72.4295C101.08 70.8026 103.144 69.7471 105.379 69.4316C113.61 67.8419 115.212 75.1881 115.212 75.1881C117.462 74.2143 119.888 73.7119 122.34 73.7119C124.792 73.7119 127.218 74.2143 129.469 75.1881C137.648 78.4189 135.994 87.8421 135.994 87.8421C135.994 87.8421 159.559 87.0729 163.61 91.3934H57.6602C57.6602 91.3934 59.7884 86.1241 76.404 87.8934Z" fill="white"/>
</mask>
<g mask="url(#mask2_313_797)">
<path opacity="0.5" d="M76.404 87.8934C76.404 87.8934 84.6733 78.4061 96.7503 78.4061C96.9777 76.1607 97.9512 74.0564 99.5154 72.4295C101.08 70.8026 103.144 69.7471 105.379 69.4316C113.61 67.8419 115.212 75.1881 115.212 75.1881C117.462 74.2143 119.888 73.7119 122.34 73.7119C124.792 73.7119 127.218 74.2143 129.469 75.1881C137.648 78.4189 135.994 87.8421 135.994 87.8421C135.994 87.8421 159.559 87.0729 163.61 91.3934H57.6602C57.6602 91.3934 59.7884 86.1241 76.404 87.8934Z" stroke="#263238" stroke-linecap="round" stroke-linejoin="round"/>
</g>
<path d="M76.404 87.8934C76.404 87.8934 84.6733 78.4061 96.7503 78.4061C96.9777 76.1607 97.9512 74.0564 99.5154 72.4295C101.08 70.8026 103.144 69.7471 105.379 69.4316C113.61 67.8419 115.212 75.1881 115.212 75.1881C117.462 74.2143 119.888 73.7119 122.34 73.7119C124.792 73.7119 127.218 74.2143 129.469 75.1881C137.648 78.4189 135.994 87.8421 135.994 87.8421C135.994 87.8421 159.559 87.0729 163.61 91.3934H57.6602C57.6602 91.3934 59.7884 86.1241 76.404 87.8934Z" stroke="#263238" stroke-linecap="round" stroke-linejoin="round"/>
<mask id="mask3_313_797" style="mask-type:luminance" maskUnits="userSpaceOnUse" x="184" y="288" width="107" height="23">
<path d="M203.097 307.139C203.097 307.139 211.367 297.652 223.444 297.652C223.669 295.406 224.642 293.301 226.206 291.673C227.771 290.046 229.836 288.991 232.072 288.678C240.303 287.114 241.918 294.421 241.918 294.421C244.169 293.448 246.595 292.945 249.047 292.945C251.499 292.945 253.924 293.448 256.175 294.421C264.354 297.639 262.701 307.075 262.701 307.075C262.701 307.075 286.265 306.306 290.316 310.627H184.354C184.354 310.627 186.482 305.37 203.097 307.139Z" fill="white"/>
</mask>
<g mask="url(#mask3_313_797)">
<path opacity="0.5" d="M203.097 307.139C203.097 307.139 211.367 297.652 223.444 297.652C223.669 295.406 224.642 293.301 226.206 291.673C227.771 290.046 229.836 288.991 232.072 288.678C240.303 287.114 241.918 294.421 241.918 294.421C244.169 293.448 246.595 292.945 249.047 292.945C251.499 292.945 253.925 293.448 256.175 294.421C264.354 297.639 262.701 307.075 262.701 307.075C262.701 307.075 286.265 306.306 290.316 310.627H184.354C184.354 310.627 186.482 305.37 203.097 307.139Z" stroke="#263238" stroke-linecap="round" stroke-linejoin="round"/>
</g>
<path d="M203.097 307.139C203.097 307.139 211.367 297.652 223.444 297.652C223.669 295.406 224.642 293.301 226.206 291.673C227.771 290.046 229.836 288.991 232.072 288.678C240.303 287.114 241.918 294.421 241.918 294.421C244.169 293.448 246.595 292.945 249.047 292.945C251.499 292.945 253.925 293.448 256.175 294.421C264.354 297.639 262.701 307.075 262.701 307.075C262.701 307.075 286.265 306.306 290.316 310.627H184.354C184.354 310.627 186.482 305.37 203.097 307.139Z" stroke="#263238" stroke-linecap="round" stroke-linejoin="round"/>
<path d="M0.68457 345.845C0.68457 345.845 3.17178 352.409 10.9411 362.512C20.9797 375.666 39.9542 394.807 73.9675 413.166C133.968 445.603 171.943 499.501 171.943 499.501L206.854 388.23C206.854 388.23 191.328 387.102 169.481 371.563C154.571 361.089 136.789 343.884 119.019 315.909C75.07 246.793 29.0951 231.805 29.0951 231.805" fill="white"/>
<mask id="mask4_313_797" style="mask-type:luminance" maskUnits="userSpaceOnUse" x="0" y="231" width="207" height="269">
<path d="M0.68457 345.845C0.68457 345.845 3.17178 352.409 10.9411 362.512C20.9797 375.666 39.9542 394.807 73.9675 413.166C133.968 445.603 171.943 499.501 171.943 499.501L206.854 388.23C206.854 388.23 191.328 387.102 169.481 371.563C154.571 361.089 136.789 343.884 119.019 315.909C75.07 246.793 29.0951 231.805 29.0951 231.805" fill="white"/>
</mask>
<g mask="url(#mask4_313_797)">
<path opacity="0.4" d="M10.9028 362.512C20.9799 375.666 39.9544 394.807 73.9677 413.166C133.968 445.603 171.943 499.501 171.943 499.501L206.854 388.23C206.854 388.23 191.328 387.102 169.482 371.563C151.597 371.076 114.519 383.217 95.5833 401.512C95.5192 401.538 51.7751 379.358 10.9028 362.512Z" fill="#28B04C"/>
<path d="M126.34 386.461C126.34 386.461 147.687 404.897 159.674 405.5" stroke="#263238" stroke-linecap="round" stroke-linejoin="round"/>
<path d="M63.7109 407.833C78.9291 415.23 101.25 423.5 109.365 427.731" stroke="#263238" stroke-linecap="round" stroke-linejoin="round"/>
<path d="M122.071 320.896C126.199 329.426 131.068 337.577 136.622 345.255" stroke="#263238" stroke-linecap="round" stroke-linejoin="round"/>
</g>
<path d="M0.68457 345.845C0.68457 345.845 3.17178 352.409 10.9411 362.512C20.9797 375.666 39.9542 394.807 73.9675 413.166C133.968 445.603 171.943 499.501 171.943 499.501L206.854 388.23C206.854 388.23 191.328 387.102 169.481 371.563C154.571 361.089 136.789 343.884 119.019 315.909C75.07 246.793 29.0951 231.805 29.0951 231.805" stroke="#263238" stroke-linecap="round" stroke-linejoin="round"/>
<path d="M558.076 335.589C558.076 335.589 555.589 342.153 547.819 352.255C537.742 365.409 518.768 384.551 484.819 402.91C424.818 435.346 386.843 489.244 386.843 489.244L351.933 377.974C351.933 377.974 367.458 376.845 389.305 361.307C404.151 350.768 421.921 333.601 439.703 305.627C483.652 236.511 529.64 221.523 529.64 221.523" fill="white"/>
<mask id="mask5_313_797" style="mask-type:luminance" maskUnits="userSpaceOnUse" x="351" y="221" width="208" height="269">
<path d="M558.076 335.589C558.076 335.589 555.589 342.153 547.819 352.255C537.742 365.409 518.768 384.551 484.819 402.91C424.818 435.346 386.843 489.244 386.843 489.244L351.933 377.974C351.933 377.974 367.458 376.845 389.305 361.307C404.151 350.768 421.921 333.601 439.703 305.627C483.652 236.511 529.64 221.523 529.64 221.523" fill="white"/>
</mask>
<g mask="url(#mask5_313_797)">
<path opacity="0.4" d="M547.858 352.255C537.781 365.409 518.806 384.551 484.857 402.91C424.856 435.346 386.881 489.244 386.881 489.244L351.971 377.974C351.971 377.974 367.497 376.845 389.343 361.307C407.228 360.82 439.061 369.076 455.023 394.641C455.023 394.653 506.985 369.102 547.858 352.255Z" fill="#28B04C"/>
<path d="M410.42 356.961C410.42 356.961 399.997 373.897 373.061 384.525" stroke="#263238" stroke-linecap="round" stroke-linejoin="round"/>
<path d="M491.305 400.23C484.895 402.91 458.331 411.256 452.241 415.525" stroke="#263238" stroke-linecap="round" stroke-linejoin="round"/>
<path d="M440.074 318.358C440.074 318.358 446.138 296.562 455.023 283.357" stroke="#263238" stroke-linecap="round" stroke-linejoin="round"/>
</g>
<path d="M558.076 335.589C558.076 335.589 555.589 342.153 547.819 352.255C537.742 365.409 518.768 384.551 484.819 402.91C424.818 435.346 386.843 489.244 386.843 489.244L351.933 377.974C351.933 377.974 367.458 376.845 389.305 361.307C404.151 350.768 421.921 333.601 439.703 305.627C483.652 236.511 529.64 221.523 529.64 221.523" stroke="#263238" stroke-linecap="round" stroke-linejoin="round"/>
<path d="M235.277 414.859L197.802 419.359C197.802 419.359 171.636 427.333 165.315 433.013C158.994 438.692 150.687 453.923 150.687 453.923C150.687 453.923 141.481 455.667 136.763 453.923C136.234 453.778 135.741 453.523 135.315 453.177C134.889 452.83 134.539 452.399 134.289 451.91C133.688 450.479 133.257 448.981 133.007 447.449C132.338 442.651 132.269 437.789 132.802 432.974C132.802 432.974 126.648 424.179 126.391 420.577C126.135 416.974 127.443 402.128 131.161 397.974C131.311 397.796 131.479 397.632 131.661 397.487C135.763 394.205 159.174 383.794 159.174 383.794C159.174 383.794 164.443 375.884 177.328 373.538C190.213 371.192 218.021 379.397 218.021 379.397L222.059 387.679L235.277 414.859Z" fill="white"/>
<path opacity="0.4" d="M133.032 447.487C132.364 442.69 132.295 437.827 132.827 433.013C132.827 433.013 126.673 424.218 126.417 420.615C126.16 417.013 127.468 402.166 131.186 398.012C126.878 406.602 127.737 419.692 133.75 415.525C141.071 410.397 148.622 420.833 148.622 420.833C140.635 424.974 134.789 439.09 133.032 447.487Z" fill="#28B04C"/>
<path opacity="0.4" d="M235.277 414.859L197.802 419.359C197.802 419.359 171.635 427.333 165.315 433.013C158.994 438.692 150.686 453.923 150.686 453.923C150.686 453.923 141.481 455.667 136.763 453.923C141.097 452.641 147.379 447.769 148.571 441.244C150.263 431.961 165.892 423.602 165.302 416.41C164.712 409.218 152.725 397.487 152.725 397.487C159.751 395.961 166.084 400.333 166.084 400.333C163.364 397.05 160.14 394.22 156.533 391.948C170.289 390.461 172.93 400.192 172.93 400.192C176.776 401.051 185.751 397.487 185.751 397.487C185.797 394.003 186.785 390.596 188.61 387.628L193.072 394.615C197.931 394.615 214.238 389.974 221.995 387.679L235.277 414.859Z" fill="#28B04C"/>
<path d="M134.288 451.962C136.301 456.641 150.673 453.936 150.673 453.936C150.673 453.936 158.994 438.692 165.314 433.013C171.635 427.333 197.802 419.346 197.802 419.346L235.277 414.859L218.007 379.435C218.007 379.435 190.199 371.243 177.314 373.589C164.43 375.935 159.16 383.846 159.16 383.846C159.16 383.846 135.75 394.243 131.647 397.538C127.545 400.833 126.083 417.013 126.378 420.615C126.673 424.218 132.788 433.013 132.788 433.013C132.788 433.013 131.352 445.154 134.288 451.962Z" stroke="#263238" stroke-linecap="round" stroke-linejoin="round"/>
<path d="M134.865 448.808C134.865 448.808 137.212 435.641 148.34 430.859C148.34 430.859 149.507 423.013 146.584 419.397C143.66 415.782 135.16 422.808 134.865 430.859C134.571 438.91 134.865 448.808 134.865 448.808Z" stroke="#263238" stroke-linecap="round" stroke-linejoin="round"/>
<path d="M159.161 400.23C159.161 400.23 178.687 409 168.481 430.808" stroke="#263238" stroke-linecap="round" stroke-linejoin="round"/>
<path d="M166.083 396.128C166.083 396.128 182.673 410.436 170.481 428.449" stroke="#263238" stroke-linecap="round" stroke-linejoin="round"/>
<path d="M188.661 393.217C187.726 399.542 187.726 405.97 188.661 412.295" stroke="#263238" stroke-linecap="round" stroke-linejoin="round"/>
<path d="M139.558 415.525C139.558 415.525 136.045 417.205 133.699 425.987" stroke="#263238" stroke-linecap="round" stroke-linejoin="round"/>
<path d="M136.622 400.23C136.622 400.23 131.648 400.91 129.02 410.756" stroke="#263238" stroke-linecap="round" stroke-linejoin="round"/>
<path d="M424.971 414.859C420.869 417.487 418.702 423.013 418.702 423.013C418.702 423.013 419.471 433.013 418.702 435.641C417.933 438.269 412.369 443.256 407.971 440.474C403.574 437.692 401.317 427.449 389.933 423.013L318.714 394.653C321.129 391.237 324.012 388.178 327.278 385.563C332.533 381.228 338.394 377.687 344.676 375.051C363.189 367.14 385.702 362.166 396.715 365.679C402.894 367.666 410.343 374.576 416.087 381.384C420.523 386.628 423.933 391.846 424.971 394.653C427.305 401.102 429.1 412.218 424.971 414.859Z" fill="white"/>
<path opacity="0.4" d="M424.971 414.859C420.869 417.487 418.702 423.013 418.702 423.013C418.702 423.013 419.471 433.013 418.702 435.641C417.933 438.269 412.369 443.257 407.971 440.474C403.574 437.692 401.317 427.449 389.933 423.013L318.714 394.653C321.129 391.237 324.012 388.178 327.278 385.564C337.035 385.564 349.881 386.487 360.407 390.846C360.407 390.846 359.689 382.935 363.791 383.833C363.791 383.833 362.753 375.833 367.176 375.435C371.599 375.038 370.561 377.999 370.561 377.999C370.561 377.999 370.561 386.064 374.138 387.692C377.715 389.32 375.612 378.192 382.484 376.64C382.484 376.64 382.868 389.179 386.894 393.243C386.894 393.243 382.317 406.461 388.561 413.013C394.804 419.564 406.51 427.372 409.074 427.115C411.638 426.859 402.176 415.448 402.176 415.448C402.176 415.448 402.356 403.82 409.535 401.538C416.715 399.256 422.959 405.102 422.959 405.102C421.872 396.902 419.574 388.909 416.138 381.384C420.574 386.628 423.984 391.846 425.023 394.653C427.305 401.102 429.1 412.218 424.971 414.859Z" fill="#28B04C"/>
<path d="M318.701 394.653C318.701 394.653 326.149 382.948 344.675 375.051C363.201 367.153 385.701 362.166 396.714 365.679C407.727 369.191 422.625 388.217 424.92 394.653C427.215 401.089 429.022 412.218 424.92 414.859C420.817 417.5 418.663 423 418.663 423C418.663 423 419.433 433.013 418.663 435.641C417.894 438.269 412.33 443.256 407.945 440.474C403.561 437.692 401.279 427.449 389.894 423" stroke="#263238" stroke-linecap="round" stroke-linejoin="round"/>
<path d="M402.176 415.448C402.176 415.448 403.061 404.025 408.587 404.615C414.112 405.205 418.317 417.205 418.715 430.808C418.702 430.808 412.676 418.961 402.176 415.448Z" stroke="#263238" stroke-linecap="round" stroke-linejoin="round"/>
<path d="M383.984 419.346C383.984 419.346 377.573 398.756 391.292 390.858" stroke="#263238" stroke-linecap="round" stroke-linejoin="round"/>
<path d="M382.471 379.435C382.471 379.435 377.163 397.102 382.471 407C382.471 407 369.932 397.589 360.419 401.679" stroke="#263238" stroke-linecap="round" stroke-linejoin="round"/>
<path d="M371.407 401.538C371.407 401.538 369.599 394.653 369.894 390.858C370.189 387.064 365.112 382.653 367.06 377.974" stroke="#263238" stroke-linecap="round" stroke-linejoin="round"/>
<path d="M363.778 386.461C363.778 386.461 367.971 396 370.56 397.525" stroke="#263238" stroke-linecap="round" stroke-linejoin="round"/>
<path d="M373.061 409C373.061 409 378.343 406.666 382.484 409" stroke="#263238" stroke-linecap="round" stroke-linejoin="round"/>
<path d="M413.843 391.999C413.843 391.999 422.33 391.282 424.381 408.487" stroke="#263238" stroke-linecap="round" stroke-linejoin="round"/>
<path d="M289.072 268.472C289.072 268.472 268.649 256.703 285.38 214.177C302.111 171.651 352.407 158.753 363.778 145.933C363.778 145.933 359.189 276.537 289.072 268.472Z" fill="#28B04C"/>
<mask id="mask6_313_797" style="mask-type:luminance" maskUnits="userSpaceOnUse" x="278" y="145" width="86" height="124">
<path d="M289.072 268.472C289.072 268.472 268.649 256.703 285.38 214.177C302.111 171.651 352.407 158.753 363.778 145.933C363.778 145.933 359.189 276.537 289.072 268.472Z" fill="white"/>
</mask>
<g mask="url(#mask6_313_797)">
<path opacity="0.3" d="M354.868 158.138C349.124 169.048 331.445 182.818 312.021 215.946C302.523 232.517 294.616 249.949 288.406 268.011C285.316 265.729 272.816 254.19 282.277 223.139C282.649 234.164 286.56 240.357 286.56 240.357C285.329 197.472 354.868 158.138 354.868 158.138Z" fill="black" fill-opacity="0.7"/>
</g>
<path d="M289.072 268.472C289.072 268.472 268.649 256.703 285.38 214.177C302.111 171.651 352.407 158.753 363.778 145.933C363.778 145.933 359.189 276.537 289.072 268.472Z" stroke="#263238" stroke-linecap="round" stroke-linejoin="round"/>
<path d="M290.957 215.946C290.957 215.946 287.777 238.677 295.085 253.485L298.739 244.011C298.739 244.011 324.098 243.331 337.278 227.1" stroke="#263238" stroke-linecap="round" stroke-linejoin="round"/>
<path d="M304.829 196.677C304.829 196.677 299.073 217.972 303.137 232.857L304.829 225.421C304.829 225.421 336.612 217.19 343.368 207.382" stroke="#263238" stroke-linecap="round" stroke-linejoin="round"/>
<path d="M321.291 182.882C321.291 182.882 313.599 198.767 313.778 211.959L317.534 205.549C317.534 205.549 344.381 200.42 349.125 192.023" stroke="#263238" stroke-linecap="round" stroke-linejoin="round"/>
<path d="M337.278 169.164C331.675 176.856 325.021 194.228 325.021 194.228L331.15 187.254C331.15 187.254 346.304 183.305 351.97 175.907" stroke="#263238" stroke-linecap="round" stroke-linejoin="round"/>
<path d="M264.726 380.64C264.726 380.64 273.444 227.1 347.432 169.1C347.432 169.1 278.79 225.805 275.252 380.64H264.726Z" fill="#28B04C"/>
<mask id="mask7_313_797" style="mask-type:luminance" maskUnits="userSpaceOnUse" x="264" y="169" width="84" height="212">
<path d="M264.726 380.64C264.726 380.64 273.444 227.1 347.432 169.1C347.432 169.1 278.79 225.805 275.252 380.64H264.726Z" fill="white"/>
</mask>
<g mask="url(#mask7_313_797)">
<path opacity="0.3" d="M264.726 380.64C264.726 380.64 273.444 227.1 347.432 169.1C347.432 169.1 278.79 225.805 275.252 380.64H264.726Z" fill="black" fill-opacity="0.7"/>
</g>
<path d="M264.726 380.64C264.726 380.64 273.444 227.1 347.432 169.1C347.432 169.1 278.79 225.805 275.252 380.64H264.726Z" stroke="#263238" stroke-linecap="round" stroke-linejoin="round"/>
<path d="M257.803 220.587C257.803 220.587 276.073 210.062 261.098 172.023C246.124 133.984 201.149 122.445 190.982 110.983C190.982 110.983 195.085 227.754 257.803 220.587Z" fill="#28B04C"/>
<mask id="mask8_313_797" style="mask-type:luminance" maskUnits="userSpaceOnUse" x="190" y="110" width="77" height="111">
<path d="M257.803 220.587C257.803 220.587 276.073 210.062 261.098 172.023C246.124 133.984 201.149 122.445 190.982 110.983C190.982 110.983 195.085 227.754 257.803 220.587Z" fill="white"/>
</mask>
<g mask="url(#mask8_313_797)">
<path opacity="0.3" d="M261.149 171.997C260.351 169.943 259.387 167.957 258.264 166.061C255.969 162.215 261.751 173.612 261.867 182.818C261.95 185.12 261.51 187.411 260.579 189.518C259.649 191.626 258.252 193.495 256.495 194.984C255.341 188.959 254.713 182.638 251.828 177.215C237.136 149.471 202.828 124.33 197.379 120.189C197.969 120.932 216.751 144.548 227.866 158.138C233.828 165.458 237.79 174.689 241.713 183.189C246.687 193.997 251.149 204.985 255.572 216.062C256.187 217.613 256.854 219.151 257.431 220.69C262.405 217.587 265.123 211.818 266.277 206.061C268.175 196.228 265.918 186.061 262.777 176.574C262.277 175.023 261.751 173.497 261.149 171.997Z" fill="black" fill-opacity="0.7"/>
</g>
<path d="M257.803 220.587C257.803 220.587 276.073 210.062 261.098 172.023C246.124 133.984 201.149 122.445 190.982 110.983C190.982 110.983 195.085 227.754 257.803 220.587Z" stroke="#263238" stroke-linecap="round" stroke-linejoin="round"/>
<path d="M256.111 173.612C256.111 173.612 258.957 193.933 252.418 207.177L249.149 198.702C249.149 198.702 226.469 198.1 214.674 183.587" stroke="#263238" stroke-linecap="round" stroke-linejoin="round"/>
<path d="M243.713 156.369C243.713 156.369 248.841 175.42 245.226 188.728L243.713 182.074C243.713 182.074 215.277 174.715 209.238 165.946" stroke="#263238" stroke-linecap="round" stroke-linejoin="round"/>
<path d="M228.982 143.971C228.982 143.971 235.854 158.189 235.7 169.984L232.341 164.228C232.341 164.228 208.328 159.689 204.136 152.138" stroke="#263238" stroke-linecap="round" stroke-linejoin="round"/>
<path d="M214.674 131.753C219.7 138.689 225.649 154.176 225.649 154.176L220.123 147.945C220.123 147.945 206.571 144.407 201.507 137.791" stroke="#263238" stroke-linecap="round" stroke-linejoin="round"/>
<path d="M276.534 314.691C276.534 314.691 271.79 183.587 205.623 131.663C205.623 131.663 269.329 188.728 270.265 335.576C270.265 335.576 272.342 335.986 273.457 332.601" fill="#28B04C"/>
<mask id="mask9_313_797" style="mask-type:luminance" maskUnits="userSpaceOnUse" x="205" y="131" width="72" height="205">
<path d="M276.534 314.691C276.534 314.691 271.79 183.587 205.623 131.663C205.623 131.663 269.329 188.728 270.265 335.576C270.265 335.576 272.342 335.986 273.457 332.601" fill="white"/>
</mask>
<g mask="url(#mask9_313_797)">
<path opacity="0.3" d="M276.534 314.691C276.534 314.691 271.79 183.587 205.623 131.663C205.623 131.663 269.329 188.728 270.265 335.576C270.265 335.576 272.342 335.986 273.457 332.601" fill="black" fill-opacity="0.7"/>
</g>
<path d="M276.534 314.691C276.534 314.691 271.79 183.587 205.623 131.663C205.623 131.663 269.329 188.728 270.265 335.576C270.265 335.576 272.342 335.986 273.457 332.601" stroke="#263238" stroke-linecap="round" stroke-linejoin="round"/>
<path d="M169.546 433.782C169.546 433.782 165.135 430.295 169.546 419.397C172.93 411.051 183.943 411.461 184.546 402.73C189.059 403.295 192.661 400.307 194.995 396.653C197.328 392.999 199.213 388.615 203.11 386.692C204.392 386.102 205.674 385.781 206.854 385.153C211.482 382.692 213.085 376.038 218.085 374.525C221.033 373.627 224.495 374.845 227.2 373.474C229.905 372.102 231.239 368.345 234.175 367.063C235.434 366.679 236.72 366.383 238.021 366.179C243.213 364.82 246.559 358.486 251.931 358.627C253.482 358.691 255.149 359.32 256.534 358.627C257.624 358.089 258.277 356.845 259.406 356.409C260.376 356.179 261.392 356.219 262.342 356.525C265.341 357.17 268.464 356.912 271.316 355.781C273.88 354.614 274.47 351.217 276.034 350.448C282.252 347.384 289.226 359.32 292.829 362.307C294.932 364.063 297.303 359.576 300.034 359.679C302.521 359.781 303.791 363.627 306.252 363.32C305.111 364.217 305.765 366.204 307.022 366.935C308.364 367.497 309.81 367.772 311.265 367.743C314.804 368.115 317.996 369.974 321.073 371.781C321.625 372.047 322.108 372.438 322.483 372.922C322.855 373.486 322.932 374.204 323.317 374.756C324.124 375.897 325.996 376.038 326.599 377.243C326.788 377.894 326.9 378.565 326.932 379.243C327.329 381.14 329.573 381.999 331.509 382.14C333.445 382.281 335.522 382.051 337.176 383.076C338.32 384.018 339.36 385.08 340.278 386.243C344.124 389.974 348.586 389.769 352.137 394.487C355.855 399.423 358.368 404.82 363.676 408.384C372.65 414.423 375.215 422.936 377.663 430.846C380.112 438.756 345.33 458.449 275.098 463.487C204.867 468.526 168.622 439.115 169.546 433.782Z" fill="#263238"/>
<path opacity="0.4" d="M235.072 379.038C236.636 379.448 238.918 379.345 239.11 377.756C239.077 377.395 239.103 377.031 239.187 376.679C239.597 375.73 241.059 376.461 242.072 376.23C242.828 376.051 243.29 375.307 243.841 374.769C244.547 374.12 245.459 373.739 246.417 373.692C247.374 373.645 248.319 373.935 249.085 374.512C249.969 375.23 250.559 376.333 251.572 376.845C253.469 377.794 256.585 376.73 257.29 378.717" stroke="white" stroke-linecap="round" stroke-linejoin="round"/>
<path opacity="0.4" d="M262.111 389.051C262.55 389.332 263.046 389.51 263.564 389.572C264.081 389.634 264.606 389.579 265.099 389.41C265.592 389.241 266.04 388.963 266.411 388.597C266.782 388.231 267.065 387.785 267.239 387.294C267.38 386.781 267.431 386.179 267.867 385.858C268.534 385.384 269.431 386.025 270.252 386.102C271.88 386.269 272.816 384.371 273.88 383.153C274.526 382.431 275.352 381.894 276.274 381.597C277.196 381.3 278.181 381.254 279.126 381.465C280.072 381.675 280.944 382.133 281.654 382.793C282.363 383.453 282.884 384.29 283.162 385.217L292.829 387.781" stroke="white" stroke-linecap="round" stroke-linejoin="round"/>
<path opacity="0.4" d="M278.649 368.692C280.306 368.162 282.039 367.915 283.778 367.961C283.549 367.422 283.499 366.824 283.635 366.254C283.771 365.685 284.085 365.174 284.532 364.796C284.978 364.418 285.535 364.192 286.119 364.153C286.703 364.113 287.284 364.262 287.778 364.576C288.188 364.202 288.673 363.92 289.201 363.748C289.729 363.576 290.287 363.518 290.839 363.579C291.391 363.64 291.924 363.817 292.402 364.099C292.88 364.382 293.292 364.763 293.611 365.217L293.996 366.833C296.52 367.67 298.864 368.974 300.906 370.679" stroke="white" stroke-linecap="round" stroke-linejoin="round"/>
<path opacity="0.4" d="M305.483 380.743L308.048 381.499C307.624 380.833 308.419 380.012 309.201 379.858C309.984 379.86 310.76 379.725 311.496 379.461C312.266 378.999 312.496 378.025 312.996 377.281C313.496 376.538 314.753 376.115 315.176 376.897C315.073 376.076 315.984 375.41 316.817 375.435C317.653 375.545 318.441 375.892 319.086 376.435L325.65 380.999" stroke="white" stroke-linecap="round" stroke-linejoin="round"/>
<path d="M148.135 453.923C148.135 453.923 155.558 440.808 165.315 433.013C175.071 425.218 182.097 415.205 190.687 404.589C199.277 393.974 211.764 380.512 218.008 379.435C224.251 378.358 238.303 380.371 239.867 393.217C239.867 393.217 249.418 381.679 262.79 389.756C276.162 397.833 269.521 413.102 269.521 413.102C269.521 413.102 274.393 411.154 277.419 413.102C280.444 415.051 289.06 518.373 289.06 518.373C284.127 519.611 279.293 521.213 274.598 523.168C267.188 526.283 257.816 526.681 251.521 523.168C251.521 523.168 239.816 526.193 232.008 525.655C224.2 525.116 203.123 524.732 195.713 522.77C187.55 520.41 179.602 517.361 171.956 513.655C166.379 510.474 161.784 505.822 158.674 500.206C156.34 495.462 152.045 493.911 145.404 485.911C138.763 477.911 148.135 453.923 148.135 453.923Z" fill="white"/>
<path opacity="0.4" d="M277.418 413.102C274.495 411.23 269.854 412.974 269.534 413.102C270.113 411.645 270.543 410.133 270.816 408.589L262.803 425.474C262.803 425.474 250.405 441.603 245.969 448.833C241.533 456.064 245.328 456.821 239.88 468.334C234.431 479.847 226.456 501.873 218.02 503.655C209.584 505.437 191.661 499.308 188.328 490.68C184.994 482.052 193.033 475.962 202.892 463.462C212.751 450.962 216.841 446.282 216.059 440.487C215.277 434.692 235.29 399.769 236.572 397.641C236.046 398.333 232.956 402.474 229.085 407.589C230.817 404.353 232.308 400.994 233.546 397.538L215.097 389.769C215.097 389.769 196.956 409.077 206.712 416.461C212.072 420.525 217.379 420.59 222.315 416.461C218.469 421.5 214.687 426.179 212.572 428.487C206.712 434.897 205.533 442.013 202.905 446.218C200.277 450.423 189.84 467.885 180.84 474.193C171.84 480.5 166.52 482.231 159.186 478.283C154.186 475.577 151.084 460.731 149.596 451.59C148.661 453.064 148.161 453.962 148.161 453.962C148.161 453.962 138.801 477.936 145.443 485.936C152.084 493.937 156.366 495.488 158.699 500.231C161.814 505.825 166.392 510.465 171.943 513.655C179.613 517.36 187.581 520.414 195.764 522.783C203.174 524.719 224.251 525.116 232.059 525.655C239.867 526.193 251.572 523.168 251.572 523.168C257.816 526.681 267.175 526.296 274.649 523.168C278.937 521.393 283.335 519.899 287.816 518.693C288.226 518.168 288.611 517.616 289.021 517.065C287.957 505.129 280.252 414.936 277.418 413.102Z" fill="#28B04C"/>
<path opacity="0.4" d="M246.405 397.525C246.405 397.525 227.815 419.051 240.636 428.449C253.457 437.846 267.341 419.936 267.944 405.102L246.405 397.525Z" fill="#28B04C"/>
<path d="M289.073 518.373L287.79 518.693C283.309 519.899 278.911 521.393 274.624 523.168C267.2 526.296 257.841 526.681 251.546 523.168C251.546 523.168 239.841 526.206 232.033 525.655C224.226 525.104 203.148 524.719 195.738 522.783C187.565 520.412 179.605 517.359 171.943 513.655C166.377 510.458 161.79 505.804 158.674 500.193C156.34 495.449 152.045 493.911 145.417 485.898C138.789 477.885 148.135 453.923 148.135 453.923C148.135 453.923 148.635 453.026 149.571 451.551C152.135 447.41 158.11 438.731 165.315 433.013C175.071 425.192 182.097 415.205 190.687 404.589C199.277 393.974 211.764 380.512 218.008 379.435C224.251 378.358 238.303 380.371 239.867 393.217C239.867 393.217 249.418 381.679 262.79 389.756C271.547 395.076 271.765 403.448 270.803 408.577C270.53 410.121 270.101 411.633 269.521 413.089C269.842 412.974 274.483 411.23 277.406 413.089C280.329 414.948 287.944 505.116 288.944 517.052C289.021 517.911 289.073 518.373 289.073 518.373Z" stroke="#263238" stroke-linecap="round" stroke-linejoin="round"/>
<path d="M239.867 393.217C235.572 396.705 212.149 440.91 207.815 446.18C203.482 451.449 191.418 466.462 186.149 471.988C182.435 476.199 179.285 480.875 176.777 485.898C173.416 489.276 169.799 492.388 165.956 495.206" stroke="#263238" stroke-linecap="round" stroke-linejoin="round"/>
<path d="M269.521 413.102C265.723 419.537 262.299 426.185 259.265 433.013C255.419 442.077 244.431 465.205 239.854 474.039C235.277 482.872 227.944 503.014 222.675 506.244C217.405 509.475 209.79 516.783 205.11 516.193" stroke="#263238" stroke-linecap="round" stroke-linejoin="round"/>
<path d="M209.225 518.782C209.225 518.782 207.943 515.911 209.225 515.244" stroke="#263238" stroke-linecap="round" stroke-linejoin="round"/>
<path d="M254.867 520.193C254.867 520.193 265.418 510.103 266.88 502.732C268.341 495.36 289.059 437.346 289.059 437.346" stroke="#263238" stroke-linecap="round" stroke-linejoin="round"/>
<path d="M215.072 389.756C215.072 389.756 227.085 388.974 233.521 397.525C233.521 397.525 223.854 421.59 212.149 415.474C200.444 409.359 215.072 389.756 215.072 389.756Z" fill="white" stroke="#263238" stroke-linecap="round" stroke-linejoin="round"/>
<path d="M246.406 397.525C246.406 397.525 258.47 397.102 267.944 405.102C267.944 405.102 261.624 432.128 246.406 428.026C231.188 423.923 241.418 406.243 246.406 397.525Z" fill="white" stroke="#263238" stroke-linecap="round" stroke-linejoin="round"/>
<path d="M272.457 420.615C272.457 420.615 265.713 430.769 266.598 438.179C267.483 445.59 277.419 444.218 277.419 444.218" stroke="#263238" stroke-linecap="round" stroke-linejoin="round"/>
<path d="M222.098 446.18C222.098 446.18 230.38 452.308 238.393 453.936" stroke="#263238" stroke-linecap="round" stroke-linejoin="round"/>
<path d="M152.725 457.308C152.725 457.308 153.904 471.411 156.827 476.334C159.75 481.257 179.43 481.013 179.43 481.013" stroke="#263238" stroke-linecap="round" stroke-linejoin="round"/>
<path d="M184.34 490.667C187.601 496.427 192.632 500.981 198.687 503.655C208.943 508.232 216.046 506.219 216.046 506.219" stroke="#263238" stroke-linecap="round" stroke-linejoin="round"/>
<path d="M233.521 511.155C233.521 511.155 249.034 518.27 258.405 512.668" stroke="#263238" stroke-linecap="round" stroke-linejoin="round"/>
<path d="M190.199 423C190.199 423 193.507 430.692 200.199 432.461" stroke="#263238" stroke-linecap="round" stroke-linejoin="round"/>
<path d="M254.867 471.988C258.155 474.701 262.259 476.232 266.521 476.334" stroke="#263238" stroke-linecap="round" stroke-linejoin="round"/>
<path d="M403.01 480.424C403.01 480.424 393.638 497.398 383.689 502.09C373.74 506.783 365.535 505.026 359.688 508.501C353.842 511.975 343.881 513.77 330.419 516.116C316.957 518.462 303.393 521.386 293.778 519.629C290.448 518.992 287.233 517.86 284.239 516.27C277.773 512.694 271.914 508.116 266.88 502.706C262.098 497.796 262.508 489.885 265.726 484.552C266.424 483.254 267.38 482.112 268.535 481.197C269.69 480.282 271.021 479.613 272.444 479.231C272.444 479.231 269.226 476.667 265.598 473.423C261.662 469.911 257.277 465.577 256.072 462.834C253.713 457.564 254.303 448.205 262.482 440C264.835 437.611 267.67 435.75 270.798 434.54C273.926 433.331 277.275 432.802 280.624 432.987C280.624 432.987 268.085 422.731 273.008 410.73C274.79 406.397 277.97 400.666 287.649 399.025C301.508 396.679 309.316 404.589 309.316 404.589C309.316 404.589 307.124 390.846 321.098 387.923C335.073 384.999 365.535 407.243 371.407 410.179C375.625 412.282 382.24 417.102 388.458 420.936L389.945 421.859C391.663 422.884 393.343 423.82 394.894 424.564C402.138 429.833 404.33 438.154 407.984 440.474C409.014 441.055 410.189 441.329 411.37 441.266C412.55 441.202 413.689 440.803 414.651 440.115C414.894 440.487 415.125 440.846 415.317 441.192C418.228 446.462 425.253 468.782 403.01 480.424Z" fill="white"/>
<path opacity="0.4" d="M403.009 480.424C403.009 480.424 393.638 497.398 383.689 502.09C373.74 506.783 365.535 505.026 359.688 508.501C353.842 511.975 343.881 513.77 330.419 516.116C316.957 518.462 303.393 521.386 293.778 519.629C290.448 518.992 287.233 517.86 284.239 516.27C291.508 515.719 297.06 512.078 299.624 506.616C302.842 499.847 293.277 499.334 290.983 503.616C288.688 507.898 274.944 506.36 277.367 503.616C279.79 500.873 274.944 486.834 272.393 484.949C271.303 484.116 268.546 484.193 265.675 484.552C266.372 483.254 267.328 482.112 268.484 481.197C269.639 480.282 270.969 479.613 272.393 479.231C272.393 479.231 269.175 476.667 265.546 473.423L274.521 478.744C274.521 478.744 293.752 495.411 304.252 503.616C314.752 511.821 334.663 509.873 339.893 503.616C345.124 497.36 321.393 477.872 313.983 471.949C306.803 466.231 303.637 456.654 303.457 456.064C304.085 456.654 323.509 475.462 334.227 488.013C345.176 500.834 356.586 496.988 368.983 491.206C381.381 485.424 374.445 468.885 370.483 464.949C366.522 461.013 349.073 445.859 346.329 441.256C343.586 436.654 324.534 420.397 323.252 419.372C324.534 420.218 345.624 433.872 348.65 437.321C351.676 440.769 359.586 446.295 371.33 454.68C383.073 463.064 391.984 472.795 400.663 454.68C406.625 442.218 395.727 428.359 388.343 420.91L389.83 421.833C391.548 422.859 393.227 423.795 394.779 424.538C402.022 429.808 404.215 438.128 407.869 440.449C408.899 441.029 410.073 441.303 411.254 441.24C412.435 441.176 413.573 440.777 414.535 440.09C414.779 440.462 415.01 440.821 415.202 441.167C418.228 446.462 425.253 468.782 403.009 480.424Z" fill="#28B04C"/>
<path opacity="0.4" d="M284.227 426.808C285.882 422.74 288.463 419.115 291.766 416.222C295.07 413.328 299.003 411.246 303.252 410.141C303.252 410.141 317.599 420.09 317.599 428.282C317.599 436.474 312.073 442.821 301.817 439.654C291.56 436.487 284.227 426.808 284.227 426.808Z" fill="#28B04C"/>
<path opacity="0.4" d="M318.701 406.089C318.701 406.089 324.573 398.474 333.637 396.141C333.637 396.141 352.522 410.487 345.419 418.09C338.316 425.692 321.624 416.038 318.701 406.089Z" fill="#28B04C"/>
<path opacity="0.4" d="M264.726 462.552C264.726 462.552 271.957 451.244 282.585 448.205C282.585 448.205 304.547 460.603 293.419 470.359C282.29 480.116 267.367 467.821 264.726 462.552Z" fill="#28B04C"/>
<path d="M403.01 480.424C403.01 480.424 393.638 497.398 383.689 502.091C373.74 506.783 365.535 505.026 359.689 508.501C353.842 511.975 343.881 513.77 330.419 516.116C316.957 518.462 303.393 521.386 293.778 519.629C284.162 517.873 275.098 511.129 266.854 502.706C259.649 495.296 264.226 481 272.418 479.231C272.418 479.231 258.38 468.103 256.046 462.834C253.713 457.564 254.277 448.205 262.457 440C264.81 437.611 267.644 435.75 270.772 434.54C273.9 433.331 277.25 432.802 280.598 432.987C280.598 432.987 268.059 422.731 272.982 410.73C274.765 406.397 277.944 400.666 287.624 399.025C301.483 396.679 309.291 404.589 309.291 404.589C309.291 404.589 307.098 390.846 321.073 387.923C335.047 384.999 365.535 407.243 371.407 410.179C375.958 412.461 383.33 417.872 389.945 421.859C391.663 422.884 393.343 423.82 394.894 424.564C402.138 429.833 404.33 438.154 407.984 440.474C409.014 441.055 410.189 441.329 411.37 441.266C412.55 441.202 413.689 440.803 414.651 440.115C414.894 440.487 415.125 440.846 415.317 441.192C418.228 446.462 425.253 468.782 403.01 480.424Z" stroke="#263238" stroke-linecap="round" stroke-linejoin="round"/>
<path d="M309.33 404.679C311.291 409.192 329.099 425.192 336.791 429.885C344.484 434.577 365.933 457.987 372.176 461.09C378.42 464.193 383.882 473.975 391.292 476.321" stroke="#263238" stroke-linecap="round" stroke-linejoin="round"/>
<path d="M280.649 433.013C291.38 441.987 303.483 457.205 309.329 461.5C315.175 465.795 328.458 480.629 334.317 488.039C340.176 495.449 344.073 500.526 367.099 503.655" stroke="#263238" stroke-linecap="round" stroke-linejoin="round"/>
<path d="M375.253 481.013C375.253 481.013 373.702 495.116 352.176 497.796" stroke="#263238" stroke-linecap="round" stroke-linejoin="round"/>
<path d="M401.061 440.474C401.061 440.474 406.907 457.205 391.292 463.449" stroke="#263238" stroke-linecap="round" stroke-linejoin="round"/>
<path d="M272.457 479.257C272.457 479.257 287.598 491.936 293.778 495.449C299.957 498.962 308.163 508.334 314.406 510.283C318.492 511.413 322.808 511.413 326.894 510.283" stroke="#263238" stroke-linecap="round" stroke-linejoin="round"/>
<path d="M343.073 496.744C341.462 499.445 339.326 501.795 336.791 503.655" stroke="#263238" stroke-linecap="round" stroke-linejoin="round"/>
<path d="M280.649 424.513C282.298 420.441 284.878 416.813 288.182 413.919C291.486 411.025 295.422 408.945 299.675 407.846C299.675 407.846 314.022 417.795 314.022 426C314.022 434.205 308.483 440.526 298.227 437.359C287.97 434.192 280.649 424.513 280.649 424.513Z" fill="white" stroke="#263238" stroke-linecap="round" stroke-linejoin="round"/>
<path d="M316.355 404.679C316.355 404.679 322.227 397.064 331.291 394.717C331.291 394.717 350.189 409.064 343.073 416.679C335.958 424.295 319.291 414.564 316.355 404.679Z" fill="white" stroke="#263238" stroke-linecap="round" stroke-linejoin="round"/>
<path d="M262.79 460.526C262.79 460.526 270.008 449.205 280.649 446.18C280.649 446.18 302.598 458.577 291.483 468.334C280.367 478.09 265.431 465.795 262.79 460.526Z" fill="white" stroke="#263238" stroke-linecap="round" stroke-linejoin="round"/>
<path d="M267.944 497.244C267.944 497.244 278.123 495.18 280.623 485.898C280.623 485.898 291.034 493.937 285.034 500.193C276.213 509.411 267.944 497.244 267.944 497.244Z" fill="white" stroke="#263238" stroke-linecap="round" stroke-linejoin="round"/>
<path d="M357.047 435.641C358.832 434.653 360.366 433.269 361.533 431.595C362.7 429.922 363.468 428.003 363.778 425.987" stroke="#263238" stroke-linecap="round" stroke-linejoin="round"/>
<path d="M338.611 446.18C338.611 446.18 336.342 459 323.868 461.103" stroke="#263238" stroke-linecap="round" stroke-linejoin="round"/>
<path d="M307.303 476.334C307.303 476.334 302.175 483.757 294.636 485.898" stroke="#263238" stroke-linecap="round" stroke-linejoin="round"/>
<path d="M311.919 509.193C309.81 512.251 306.888 514.658 303.483 516.142" stroke="#263238" stroke-linecap="round" stroke-linejoin="round"/>
<path d="M321.124 511.155C321.256 512.029 321.21 512.922 320.99 513.779C320.77 514.636 320.379 515.439 319.842 516.142" stroke="#263238" stroke-linecap="round" stroke-linejoin="round"/>
<path d="M284.751 513.655C287.274 513.444 289.717 512.664 291.895 511.374C294.073 510.084 295.931 508.317 297.329 506.206" stroke="#263238" stroke-linecap="round" stroke-linejoin="round"/>
</svg>
