<svg width="9" height="15" viewBox="0 0 9 15" fill="none" xmlns="http://www.w3.org/2000/svg">
<path d="M4.38969 12.9781C3.24469 12.9781 2.29469 12.7331 1.53969 12.2431C0.789688 11.7481 0.342188 11.0181 0.197188 10.0531L1.65219 9.96307C1.81219 10.5731 2.13219 11.0306 2.61219 11.3356C3.09219 11.6406 3.68219 11.7931 4.38219 11.7931C4.80219 11.7931 5.19469 11.7206 5.55969 11.5756C5.92969 11.4306 6.22719 11.2281 6.45219 10.9681C6.68219 10.7081 6.79719 10.4006 6.79719 10.0456C6.79719 9.57057 6.65469 9.19057 6.36969 8.90557C6.08969 8.62057 5.64219 8.39557 5.02719 8.23057L3.15969 7.74307C2.35469 7.53807 1.71719 7.21557 1.24719 6.77557C0.777188 6.33557 0.539688 5.74557 0.534688 5.00557C0.529688 4.38057 0.692188 3.83057 1.02219 3.35557C1.35719 2.88057 1.81719 2.51057 2.40219 2.24557C2.99219 1.98057 3.67219 1.84807 4.44219 1.84807C5.18219 1.84807 5.81969 1.99057 6.35469 2.27557C6.89469 2.55557 7.31219 2.92807 7.60719 3.39307C7.90719 3.85807 8.06719 4.36557 8.08719 4.91557L6.67719 4.99057C6.56719 4.34557 6.32969 3.85807 5.96469 3.52807C5.60469 3.19307 5.09719 3.02557 4.44219 3.02557C4.13219 3.02557 3.83219 3.06557 3.54219 3.14557C3.25719 3.22057 2.99969 3.33557 2.76969 3.49057C2.54469 3.64557 2.36469 3.83807 2.22969 4.06807C2.09469 4.29807 2.02719 4.56557 2.02719 4.87057C2.02719 5.26057 2.16469 5.57057 2.43969 5.80057C2.71469 6.02557 3.20969 6.24807 3.92469 6.46807L5.72469 6.97807C6.64469 7.23307 7.29969 7.63057 7.68969 8.17057C8.08469 8.70557 8.28219 9.32557 8.28219 10.0306C8.28219 10.6056 8.11969 11.1156 7.79469 11.5606C7.46969 12.0006 7.01219 12.3481 6.42219 12.6031C5.83719 12.8531 5.15969 12.9781 4.38969 12.9781ZM3.80469 0.363071H5.08719V2.29807H3.80469V0.363071ZM3.71469 12.4606H4.99719V14.3956H3.71469V12.4606Z" fill="#28B04C"/>
</svg>
