<svg width="24" height="24" viewBox="0 0 24 24" fill="none" xmlns="http://www.w3.org/2000/svg">
<path d="M17.5141 3.90805C17.5141 3.20648 17.532 2.50216 17.5141 1.80087C17.5141 1.79756 17.5144 1.79426 17.5141 1.79096V1.77143C17.5141 1.75822 17.5133 1.74502 17.5119 1.73209C17.5119 1.73126 17.5119 1.73043 17.5116 1.72961C17.4726 1.23438 17.0835 0.871217 16.5814 0.866265C16.4738 0.865164 16.366 0.866265 16.2582 0.866265H10.2524C9.30655 0.866265 8.35984 0.855535 7.41424 0.866265C6.90113 0.872042 6.5011 1.25639 6.48486 1.77143C6.48376 1.80829 6.48486 1.84544 6.48486 1.88203V18.118C6.48486 18.3406 6.48376 18.5634 6.48486 18.786C6.48624 19.0479 6.56795 19.303 6.76302 19.4873C6.9955 19.7074 7.27805 19.7399 7.57656 19.7399H11.4217C11.4217 19.6023 11.4217 19.4648 11.4214 19.3272C11.4214 19.1896 11.4214 19.0521 11.4212 18.9145C11.4209 18.4352 11.4206 17.9562 11.4203 17.477C11.4198 16.4444 11.419 15.4119 11.4184 14.3793C11.4181 14.009 11.8633 13.8525 12.123 14.0874C12.4988 14.4278 12.8749 14.7681 13.2508 15.1084C14.0428 15.8251 14.8349 16.5421 15.627 17.2591C15.9827 17.581 16.3385 17.9029 16.6942 18.2248C16.8299 18.3477 16.9658 18.4705 17.1014 18.5934C17.1757 18.6606 17.2497 18.7277 17.324 18.7948C17.382 18.8474 17.4401 18.8999 17.4981 18.9525C17.5221 18.7868 17.5141 18.6182 17.5141 18.4429V3.90805ZM13.7441 13.8349C13.5655 13.9391 13.2719 13.8896 13.1795 13.6868C13.1319 13.5828 13.0777 13.4824 13.0136 13.3878C13.0048 13.3743 12.9954 13.3611 12.9861 13.3482C12.985 13.3468 12.9842 13.3454 12.9833 13.3443C12.9825 13.3435 12.9817 13.3424 12.9809 13.341C12.9806 13.3405 12.98 13.3399 12.9795 13.3394C12.9789 13.3383 12.9781 13.3372 12.9773 13.3361C12.9767 13.3352 12.9759 13.3344 12.9751 13.3333C12.9718 13.3289 12.9687 13.3251 12.9668 13.3229C12.9346 13.2857 12.9027 13.2488 12.8686 13.2134C12.8348 13.1787 12.7995 13.1448 12.763 13.1127C12.763 13.1127 12.7283 13.0835 12.7154 13.0719C12.7151 13.0717 12.7151 13.0717 12.7148 13.0714C12.7143 13.0711 12.7137 13.0706 12.7134 13.0706L12.7126 13.0697C12.7035 13.0629 12.6939 13.0554 12.6906 13.0532C12.6119 12.9982 12.5305 12.9479 12.4444 12.9041C12.419 12.8912 12.3935 12.8793 12.3676 12.8672C12.3673 12.867 12.3668 12.867 12.3665 12.8667C12.3662 12.8667 12.3662 12.8667 12.3659 12.8664C12.3657 12.8664 12.3657 12.8664 12.3654 12.8661C12.3646 12.8659 12.3635 12.8656 12.3626 12.8653C12.3233 12.8513 12.2842 12.8367 12.2441 12.8243C12.1637 12.799 12.0823 12.7809 11.9995 12.7652C11.9923 12.7638 11.9783 12.7627 11.9662 12.7616C11.9711 12.7619 11.9772 12.7621 11.9844 12.7624C11.9662 12.7613 11.9483 12.7583 11.9302 12.7575C11.8878 12.7555 11.8457 12.7522 11.8033 12.7517C11.7244 12.7509 11.6448 12.7544 11.5662 12.7641C11.6094 12.7594 11.4762 12.7831 11.4569 12.7875C11.4143 12.7976 11.3719 12.8089 11.3301 12.8218C11.2877 12.8351 11.2459 12.8499 11.2044 12.8656C11.2027 12.8661 11.2011 12.867 11.1997 12.8675C11.1991 12.8675 11.1986 12.8678 11.1983 12.8681C11.1802 12.876 11.162 12.8846 11.1441 12.8934C11.0591 12.9352 10.9774 12.9833 10.8995 13.0373C10.8951 13.0406 10.8759 13.0543 10.8638 13.0626C10.8627 13.0637 10.8613 13.0645 10.8602 13.0653C10.8552 13.0695 10.8508 13.0728 10.85 13.0736C10.8129 13.1055 10.7757 13.1374 10.7405 13.1718C10.7056 13.2056 10.672 13.2409 10.6398 13.2772C10.6277 13.2907 10.6164 13.305 10.6043 13.3185C10.6024 13.3207 10.6007 13.3223 10.5994 13.324C10.5991 13.3242 10.5988 13.3245 10.5985 13.3248C10.5498 13.3911 10.505 13.4604 10.4651 13.5322C10.4417 13.5743 10.4214 13.6172 10.3999 13.6604C10.3988 13.6629 10.3977 13.6648 10.3969 13.6665C10.3911 13.6813 10.3853 13.6962 10.3801 13.7111C10.3493 13.7955 10.3245 13.8822 10.3058 13.9699C10.3009 13.9936 10.2967 14.017 10.2923 14.0407C10.291 14.0473 10.2882 14.0698 10.2865 14.0836V14.0838C10.2849 14.1083 10.2816 14.1504 10.281 14.1642C10.2769 14.2492 10.2783 14.3345 10.2857 14.4192C10.2857 14.4192 10.2926 14.4699 10.294 14.4847C10.294 14.4847 10.294 14.4847 10.294 14.485C10.2945 14.4886 10.2951 14.491 10.2954 14.4921C10.3055 14.5411 10.3154 14.5895 10.3281 14.6377C10.3396 14.6803 10.3523 14.7224 10.3666 14.7642C10.3735 14.784 10.4172 14.8941 10.3878 14.8264C10.4767 15.0317 10.4514 15.2672 10.2398 15.391C10.064 15.4939 9.76381 15.4476 9.67522 15.243C9.45319 14.729 9.38661 14.1735 9.54013 13.6285C9.80673 12.681 10.6481 12.016 11.6209 11.9332C12.5618 11.8531 13.5019 12.4147 13.8921 13.2703C13.9851 13.4739 13.9526 13.713 13.7441 13.8349ZM14.6957 6.04495C14.6957 6.05211 14.6954 6.05899 14.6952 6.06641C14.6737 7.30338 13.7897 8.43194 12.5602 8.67818C11.4399 8.90268 10.2802 8.41131 9.68678 7.42801C9.09416 6.44581 9.21521 5.18491 9.93714 4.30726C10.6379 3.45547 11.8784 3.11597 12.9134 3.50554C13.9719 3.90393 14.6839 4.90043 14.6957 6.03533V6.04495Z" fill="#637381"/>
<path d="M23.9954 16.5036V3.11075C23.9954 3.07856 23.9962 3.04609 23.9954 3.01363C23.9835 2.60011 23.7101 2.21824 23.2946 2.12827C22.9983 2.06417 22.6621 2.10406 22.3625 2.10406H19.1807V4.35624C19.756 4.36174 20.2922 4.56589 20.7326 4.93263C21.4736 5.54974 21.7627 6.64556 21.4213 7.5477C21.0664 8.48505 20.1871 9.11261 19.1807 9.12224V18.5021H22.9191C23.0577 18.5021 23.195 18.5068 23.3307 18.4694C23.7285 18.3601 23.9841 17.9961 23.9954 17.592C24.0055 17.2299 23.9954 16.8659 23.9954 16.5036Z" fill="#637381"/>
<path d="M4.81922 9.39736C4.24394 9.39186 3.70772 9.18771 3.26724 8.8207C2.52633 8.20359 2.23717 7.10776 2.5786 6.20563C2.93351 5.26855 3.81281 4.64099 4.81922 4.63136V2.10405H1.08082C0.942152 2.10405 0.804865 2.09938 0.669228 2.13679C0.271396 2.24602 0.0158044 2.61001 0.00452429 3.01417C-0.00565536 3.37623 0.00452429 3.74023 0.00452429 4.10257V17.4954C0.00452429 17.5276 0.00369891 17.5601 0.00452429 17.5925C0.0163547 18.006 0.28983 18.3879 0.705269 18.4779C1.00158 18.542 1.33778 18.5021 1.6374 18.5021H4.81922V9.39736Z" fill="#637381"/>
<path d="M15.5469 20.9061C15.7909 21.4561 16.0352 22.0061 16.2796 22.5561C15.8176 22.7503 15.3554 22.9443 14.8932 23.1385C14.6346 22.5555 14.3754 21.9725 14.1165 21.3895C14.0197 21.1714 13.736 21.1587 13.552 21.2415C13.1178 21.4371 12.6834 21.6325 12.2492 21.8281C12.2487 20.9945 12.2481 20.1608 12.2476 19.3272C12.2476 19.3269 12.2476 19.3269 12.2476 19.3266C12.247 18.3059 12.2465 17.2852 12.2457 16.2642C12.2454 15.9459 12.2454 15.6279 12.2451 15.3095C12.8826 15.8862 13.52 16.4631 14.1575 17.0401C14.899 17.7111 15.6404 18.3824 16.3819 19.0534C16.503 19.1632 16.6243 19.2727 16.7453 19.3825C16.8601 19.4862 16.9745 19.5899 17.0893 19.6937C16.6435 19.9008 16.1978 20.108 15.7519 20.3152C15.7318 20.3223 15.7128 20.3311 15.6949 20.3416C15.4927 20.4354 15.4418 20.7268 15.5469 20.9061Z" fill="#637381"/>
</svg>
