<svg width="24" height="24" viewBox="0 0 24 24" fill="none" xmlns="http://www.w3.org/2000/svg">
<path d="M12.0281 4.69268C13.2779 4.69268 14.2946 3.67596 14.2946 2.42626C14.2946 1.17656 13.2778 0.159836 12.0281 0.159836C10.7784 0.159836 9.76172 1.17656 9.76172 2.42626C9.76172 3.67604 10.7784 4.69268 12.0281 4.69268Z" fill="#637381"/>
<path d="M8.45489 11.6451H15.6006C16.066 11.6451 16.4432 11.2678 16.4432 10.8024V7.68678C16.4432 6.82431 15.8889 6.05955 15.0694 5.79102L15.0656 5.78973L13.8668 5.59126C13.7647 5.55991 13.6557 5.61389 13.619 5.71458L12.2589 9.4467C12.1804 9.66197 11.8759 9.66197 11.7974 9.4467L10.4372 5.71458C10.4075 5.63328 10.3309 5.58237 10.2487 5.58237C10.2292 5.58237 8.99073 5.78957 8.99073 5.78957C8.16439 6.06488 7.6123 6.83094 7.6123 7.69712V10.8025C7.6123 11.2679 7.98952 11.6451 8.45489 11.6451Z" fill="#637381"/>
<path d="M22.3622 17.3952C22.3578 17.3938 22.3533 17.3923 22.3489 17.391L21.7002 17.192C21.505 17.1322 21.2931 17.1795 21.142 17.316L19.7435 18.5805L18.3449 17.316C18.1938 17.1794 17.9819 17.132 17.7868 17.192L17.138 17.391C17.1335 17.3923 17.1291 17.3938 17.1246 17.3952C16.1452 17.7217 15.4873 18.6347 15.4873 19.667V23.2611C15.4873 23.5809 15.7465 23.8402 16.0664 23.8402H23.4204C23.7402 23.8402 23.9995 23.5809 23.9995 23.2611V19.667C23.9995 18.6347 23.3415 17.7217 22.3622 17.3952Z" fill="#637381"/>
<path d="M19.7438 16.7926C21.0768 16.7926 22.1613 15.708 22.1613 14.375C22.1613 13.042 21.0768 11.9575 19.7438 11.9575C18.4107 11.9575 17.3262 13.042 17.3262 14.375C17.3262 15.708 18.4107 16.7926 19.7438 16.7926Z" fill="#637381"/>
<path d="M6.87483 17.3952C6.87038 17.3938 6.86594 17.3923 6.8615 17.391L6.21277 17.192C6.0177 17.132 5.80574 17.1794 5.65463 17.316L4.256 18.5805L2.85745 17.316C2.70634 17.1794 2.49438 17.132 2.29931 17.192C2.29931 17.192 1.64178 17.3938 1.63725 17.3952C0.65802 17.7217 0 18.6347 0 19.667V23.2611C0 23.5809 0.259232 23.8402 0.579071 23.8402H7.93309C8.25293 23.8402 8.51216 23.5809 8.51216 23.2611V19.667C8.51216 18.6347 7.85422 17.7217 6.87483 17.3952Z" fill="#637381"/>
<path d="M1.83887 14.3749C1.83887 15.708 2.92339 16.7925 4.2564 16.7925C5.58949 16.7925 6.67402 15.708 6.67402 14.3749C6.67402 13.0419 5.58949 11.9574 4.2564 11.9574C2.92339 11.9574 1.83887 13.0419 1.83887 14.3749Z" fill="#637381"/>
<path d="M20.4044 7.99967C20.2063 7.94036 19.9832 7.98068 19.8165 8.12727C19.5591 8.35345 19.5338 8.74553 19.76 9.00291L20.6082 9.96808C20.726 10.1021 20.8958 10.1789 21.0742 10.1789C21.2526 10.1789 21.4225 10.1021 21.5402 9.96808L22.3884 9.00291C22.6145 8.74553 22.5893 8.35345 22.3319 8.12727C22.1398 7.95846 21.8728 7.93002 21.6557 8.03313C21.5295 6.67798 21.0015 5.40638 20.1265 4.41082C19.9004 4.15345 19.5084 4.12808 19.2509 4.35434C18.9935 4.58052 18.9682 4.9726 19.1944 5.22998C19.8637 5.99143 20.2793 6.95959 20.4044 7.99967Z" fill="#637381"/>
<path d="M2.51532 9.96807C2.63314 10.1021 2.80292 10.1789 2.98134 10.1789C3.15977 10.1789 3.32963 10.1021 3.44736 9.96807L4.29553 9.0029C4.52171 8.74553 4.49641 8.35345 4.23904 8.12726C4.07225 7.98076 3.84922 7.94044 3.65116 7.99975C3.77625 6.95967 4.19185 5.99151 4.86102 5.23005C5.0872 4.97268 5.06191 4.5806 4.80454 4.35442C4.54708 4.12823 4.15508 4.15361 3.9289 4.4109C3.05407 5.40646 2.52607 6.67805 2.39977 8.03312C2.18256 7.92993 1.91565 7.95846 1.72357 8.12726C1.46619 8.35345 1.4409 8.74553 1.66708 9.0029L2.51532 9.96807Z" fill="#637381"/>
<path d="M12.4948 5.6269C12.4426 5.56993 12.366 5.54124 12.2887 5.54124H11.7117C11.6344 5.54124 11.5579 5.56993 11.5056 5.6269C11.4246 5.71514 11.4129 5.84258 11.4704 5.94221L11.7788 6.40718L11.6344 7.6252L11.9187 8.38157C11.9464 8.45761 12.054 8.45761 12.0817 8.38157L12.366 7.6252L12.2215 6.40718L12.53 5.94221C12.5875 5.84258 12.5758 5.71514 12.4948 5.6269Z" fill="#637381"/>
</svg>
