<svg width="46" height="38" viewBox="0 0 46 38" fill="none" xmlns="http://www.w3.org/2000/svg">
<path d="M19.3376 37.8596C19.3376 37.8596 2.2442 36.7897 0 10.8112C0 10.8112 23.0745 9.37141 21.001 35.6206C21.001 35.6206 12.239 27.1673 9.8573 21.8981C9.8573 21.8981 14.3814 34.3642 19.3376 37.8596Z" fill="#28B04C"/>
<path d="M26.5823 37.1081C26.5823 37.1081 43.6757 36.0382 45.9199 10.0597C45.9199 10.0597 22.8454 8.61997 24.9189 34.8691C24.9189 34.8691 33.6809 26.4159 36.0626 21.1466C36.0626 21.1466 31.5386 33.6128 26.5823 37.1081Z" fill="#28B04C"/>
<path d="M21.5855 35.3713C21.5855 35.3713 9.25276 21.5081 22.1025 0.140489C22.1025 0.140489 40.3656 16.6726 24.0977 34.9477C24.0977 34.9477 22.2026 21.8612 23.3515 16.0559C23.3515 16.0559 19.7932 28.942 21.5855 35.3713Z" fill="#28B04C"/>
</svg>
