<svg width="24" height="24" viewBox="0 0 24 24" fill="none" xmlns="http://www.w3.org/2000/svg">
<path d="M23.8127 12C23.8127 15.9 20.6627 19.0875 16.7252 19.0875C12.8252 19.0875 9.6377 15.9 9.6377 12C9.6377 8.1 12.7877 4.9125 16.6877 4.9125C20.6627 4.9125 23.8127 8.1 23.8127 12Z" fill="#FFB600"/>
<path d="M16.7252 4.9125C20.6252 4.9125 23.8127 8.1 23.8127 12C23.8127 15.9 20.6627 19.0875 16.7252 19.0875C12.8252 19.0875 9.6377 15.9 9.6377 12" fill="#F7981D"/>
<path d="M16.7246 4.9125C20.6246 4.9125 23.8121 8.1 23.8121 12C23.8121 15.9 20.6621 19.0875 16.7246 19.0875" fill="#FF8500"/>
<path d="M7.2 4.9125C3.3375 4.95 0.1875 8.1 0.1875 12C0.1875 15.9 3.3375 19.0875 7.275 19.0875C9.1125 19.0875 10.7625 18.375 12.0375 17.25C12.3 17.025 12.525 16.7625 12.75 16.5H11.2875C11.1 16.275 10.9125 16.0125 10.7625 15.7875H13.275C13.425 15.5625 13.575 15.3 13.6875 15.0375H10.35C10.2375 14.8125 10.125 14.55 10.05 14.2875H13.95C14.175 13.575 14.325 12.825 14.325 12.0375C14.325 11.5125 14.25 11.025 14.175 10.5375H9.825C9.8625 10.275 9.9375 10.05 10.0125 9.7875H13.9125C13.8375 9.525 13.725 9.2625 13.6125 9.0375H10.3125C10.425 8.775 10.575 8.55 10.725 8.2875H13.2375C13.0875 8.025 12.9 7.7625 12.675 7.5375H11.2875C11.5125 7.275 11.7375 7.05 12 6.825C10.7625 5.6625 9.075 4.9875 7.2375 4.9875C7.2375 4.9125 7.2375 4.9125 7.2 4.9125Z" fill="#FF5050"/>
<path d="M0.1875 12C0.1875 15.9 3.3375 19.0875 7.275 19.0875C9.1125 19.0875 10.7625 18.375 12.0375 17.25C12.3 17.025 12.525 16.7625 12.75 16.5H11.2875C11.1 16.275 10.9125 16.0125 10.7625 15.7875H13.275C13.425 15.5625 13.575 15.3 13.6875 15.0375H10.35C10.2375 14.8125 10.125 14.55 10.05 14.2875H13.95C14.175 13.575 14.325 12.825 14.325 12.0375C14.325 11.5125 14.25 11.025 14.175 10.5375H9.825C9.8625 10.275 9.9375 10.05 10.0125 9.7875H13.9125C13.8375 9.525 13.725 9.2625 13.6125 9.0375H10.3125C10.425 8.775 10.575 8.55 10.725 8.2875H13.2375C13.0875 8.025 12.9 7.7625 12.675 7.5375H11.2875C11.5125 7.275 11.7375 7.05 12 6.825C10.7625 5.6625 9.075 4.9875 7.2375 4.9875H7.2" fill="#E52836"/>
<path d="M7.27519 19.0875C9.11269 19.0875 10.7627 18.375 12.0377 17.25C12.3002 17.025 12.5252 16.7625 12.7502 16.5H11.2877C11.1002 16.275 10.9127 16.0125 10.7627 15.7875H13.2752C13.4252 15.5625 13.5752 15.3 13.6877 15.0375H10.3502C10.2377 14.8125 10.1252 14.55 10.0502 14.2875H13.9502C14.1752 13.575 14.3252 12.825 14.3252 12.0375C14.3252 11.5125 14.2502 11.025 14.1752 10.5375H9.8252C9.8627 10.275 9.9377 10.05 10.0127 9.7875H13.9127C13.8377 9.525 13.7252 9.2625 13.6127 9.0375H10.3127C10.4252 8.775 10.5752 8.55 10.7252 8.2875H13.2377C13.0877 8.025 12.9002 7.7625 12.6752 7.5375H11.2877C11.5127 7.275 11.7377 7.05 12.0002 6.825C10.7627 5.6625 9.07519 4.9875 7.23769 4.9875H7.2002" fill="#CB2026"/>
<path d="M9.78731 13.8L9.89981 13.1625C9.86231 13.1625 9.78731 13.2 9.71231 13.2C9.44981 13.2 9.41231 13.05 9.44981 12.975L9.67481 11.6625H10.0873L10.1998 10.95H9.82481L9.89981 10.5H9.14981C9.14981 10.5 8.69981 12.975 8.69981 13.275C8.69981 13.725 8.96231 13.9125 9.29981 13.9125C9.52481 13.9125 9.71231 13.8375 9.78731 13.8ZM10.0498 12.6C10.0498 13.65 10.7623 13.9125 11.3623 13.9125C11.9248 13.9125 12.1498 13.8 12.1498 13.8L12.2998 13.0875C12.2998 13.0875 11.8873 13.275 11.5123 13.275C10.6873 13.275 10.8373 12.675 10.8373 12.675H12.3748C12.3748 12.675 12.4873 12.1875 12.4873 12C12.4873 11.5125 12.2248 10.9125 11.3998 10.9125C10.6123 10.8375 10.0498 11.6625 10.0498 12.6ZM11.3623 11.5125C11.7748 11.5125 11.6998 12 11.6998 12.0375H10.8748C10.8748 12 10.9498 11.5125 11.3623 11.5125ZM16.1248 13.8L16.2748 12.975C16.2748 12.975 15.8998 13.1625 15.6373 13.1625C15.1123 13.1625 14.8873 12.75 14.8873 12.3C14.8873 11.4 15.3373 10.9125 15.8623 10.9125C16.2373 10.9125 16.5373 11.1375 16.5373 11.1375L16.6498 10.35C16.6498 10.35 16.1998 10.1625 15.7873 10.1625C14.9248 10.1625 14.0623 10.9125 14.0623 12.3375C14.0623 13.275 14.5123 13.9125 15.4123 13.9125C15.7123 13.9125 16.1248 13.8 16.1248 13.8ZM5.66231 10.8375C5.13731 10.8375 4.7623 10.9875 4.7623 10.9875L4.6498 11.625C4.6498 11.625 4.98731 11.475 5.47481 11.475C5.73731 11.475 5.96231 11.5125 5.96231 11.7375C5.96231 11.8875 5.92481 11.925 5.92481 11.925H5.58731C4.9498 11.925 4.2373 12.1875 4.2373 13.05C4.2373 13.725 4.6873 13.875 4.9498 13.875C5.4748 13.875 5.69981 13.5375 5.73731 13.5375L5.6998 13.8375H6.3748L6.6748 11.775C6.6748 10.875 5.92481 10.8375 5.66231 10.8375ZM5.8123 12.525C5.8123 12.6375 5.73731 13.2375 5.2873 13.2375C5.0623 13.2375 4.98731 13.05 4.98731 12.9375C4.98731 12.75 5.0998 12.4875 5.66231 12.4875C5.77481 12.525 5.8123 12.525 5.8123 12.525ZM7.38731 13.875C7.57481 13.875 8.51231 13.9125 8.51231 12.9C8.51231 11.9625 7.61231 12.15 7.61231 11.775C7.61231 11.5875 7.76231 11.5125 8.02481 11.5125C8.13731 11.5125 8.54981 11.55 8.54981 11.55L8.66231 10.875C8.66231 10.875 8.39981 10.8 7.94981 10.8C7.38731 10.8 6.82481 11.025 6.82481 11.775C6.82481 12.6375 7.76231 12.5625 7.76231 12.9C7.76231 13.125 7.49981 13.1625 7.31231 13.1625C6.97481 13.1625 6.63731 13.05 6.63731 13.05L6.52481 13.725C6.5623 13.8 6.74981 13.875 7.38731 13.875ZM22.3498 10.2375L22.1998 11.25C22.1998 11.25 21.8998 10.875 21.4873 10.875C20.8123 10.875 20.2123 11.7 20.2123 12.675C20.2123 13.275 20.5123 13.9125 21.1498 13.9125C21.5998 13.9125 21.8623 13.6125 21.8623 13.6125L21.8248 13.875H22.5748L23.1373 10.275L22.3498 10.2375ZM22.0123 12.225C22.0123 12.6375 21.8248 13.1625 21.4123 13.1625C21.1498 13.1625 20.9998 12.9375 20.9998 12.5625C20.9998 11.9625 21.2623 11.5875 21.5998 11.5875C21.8623 11.5875 22.0123 11.775 22.0123 12.225ZM1.5748 13.8375L2.0248 11.1375L2.0998 13.8375H2.6248L3.5998 11.1375L3.1873 13.8375H3.97481L4.5748 10.2375H3.3373L2.5873 12.45L2.5498 10.2375H1.4623L0.862305 13.8375H1.5748ZM13.1998 13.8375C13.4248 12.6 13.4623 11.5875 13.9873 11.775C14.0623 11.2875 14.1748 11.1 14.2498 10.9125H14.0998C13.7623 10.9125 13.4998 11.3625 13.4998 11.3625L13.5748 10.95H12.8623L12.3748 13.875H13.1998V13.8375ZM17.8498 10.8375C17.3248 10.8375 16.9498 10.9875 16.9498 10.9875L16.8373 11.625C16.8373 11.625 17.1748 11.475 17.6623 11.475C17.9248 11.475 18.1498 11.5125 18.1498 11.7375C18.1498 11.8875 18.1123 11.925 18.1123 11.925H17.7748C17.1373 11.925 16.4248 12.1875 16.4248 13.05C16.4248 13.725 16.8748 13.875 17.1373 13.875C17.6623 13.875 17.8873 13.5375 17.9248 13.5375L17.8873 13.8375H18.5623L18.8623 11.775C18.8998 10.875 18.1123 10.8375 17.8498 10.8375ZM18.0373 12.525C18.0373 12.6375 17.9623 13.2375 17.5123 13.2375C17.2873 13.2375 17.2123 13.05 17.2123 12.9375C17.2123 12.75 17.3248 12.4875 17.8873 12.4875C17.9998 12.525 17.9998 12.525 18.0373 12.525ZM19.4998 13.8375C19.7248 12.6 19.7623 11.5875 20.2873 11.775C20.3623 11.2875 20.4748 11.1 20.5498 10.9125H20.3998C20.0623 10.9125 19.7998 11.3625 19.7998 11.3625L19.8748 10.95H19.1623L18.6748 13.875H19.4998V13.8375Z" fill="white"/>
<path d="M8.62481 13.275C8.62481 13.725 8.88731 13.9125 9.22481 13.9125C9.48731 13.9125 9.71231 13.8375 9.78731 13.8L9.89981 13.1625C9.86231 13.1625 9.78731 13.2 9.71231 13.2C9.44981 13.2 9.41231 13.05 9.44981 12.975L9.67481 11.6625H10.0873L10.1998 10.95H9.82481L9.89981 10.5M10.4248 12.6C10.4248 13.65 10.7623 13.9125 11.3623 13.9125C11.9248 13.9125 12.1498 13.8 12.1498 13.8L12.2998 13.0875C12.2998 13.0875 11.8873 13.275 11.5123 13.275C10.6873 13.275 10.8373 12.675 10.8373 12.675H12.3748C12.3748 12.675 12.4873 12.1875 12.4873 12C12.4873 11.5125 12.2248 10.9125 11.3998 10.9125C10.6123 10.8375 10.4248 11.6625 10.4248 12.6ZM11.3623 11.5125C11.7748 11.5125 11.8498 12 11.8498 12.0375H10.8748C10.8748 12 10.9498 11.5125 11.3623 11.5125ZM16.1248 13.8L16.2748 12.975C16.2748 12.975 15.8998 13.1625 15.6373 13.1625C15.1123 13.1625 14.8873 12.75 14.8873 12.3C14.8873 11.4 15.3373 10.9125 15.8623 10.9125C16.2373 10.9125 16.5373 11.1375 16.5373 11.1375L16.6498 10.35C16.6498 10.35 16.1998 10.1625 15.7873 10.1625C14.9248 10.1625 14.4373 10.9125 14.4373 12.3375C14.4373 13.275 14.5123 13.9125 15.4123 13.9125C15.7123 13.9125 16.1248 13.8 16.1248 13.8ZM4.6498 11.6625C4.6498 11.6625 4.98731 11.5125 5.47481 11.5125C5.73731 11.5125 5.96231 11.55 5.96231 11.775C5.96231 11.925 5.92481 11.9625 5.92481 11.9625H5.58731C4.9498 11.9625 4.2373 12.225 4.2373 13.0875C4.2373 13.7625 4.6873 13.9125 4.9498 13.9125C5.4748 13.9125 5.69981 13.575 5.73731 13.575L5.6998 13.875H6.3748L6.6748 11.8125C6.6748 10.95 5.92481 10.9125 5.6248 10.9125M6.1873 12.525C6.1873 12.6375 5.73731 13.2375 5.2873 13.2375C5.0623 13.2375 4.98731 13.05 4.98731 12.9375C4.98731 12.75 5.0998 12.4875 5.66231 12.4875C5.77481 12.525 6.1873 12.525 6.1873 12.525ZM6.5623 13.8C6.5623 13.8 6.78731 13.875 7.42481 13.875C7.61231 13.875 8.54981 13.9125 8.54981 12.9C8.54981 11.9625 7.64981 12.15 7.64981 11.775C7.64981 11.5875 7.79981 11.5125 8.06231 11.5125C8.17481 11.5125 8.58731 11.55 8.58731 11.55L8.69981 10.875C8.69981 10.875 8.43731 10.8 7.98731 10.8C7.42481 10.8 7.23731 11.025 7.23731 11.775C7.23731 12.6375 7.79981 12.5625 7.79981 12.9C7.79981 13.125 7.53731 13.1625 7.34981 13.1625M22.1998 11.25C22.1998 11.25 21.8998 10.875 21.4873 10.875C20.8123 10.875 20.5873 11.7 20.5873 12.675C20.5873 13.275 20.5123 13.9125 21.1498 13.9125C21.5998 13.9125 21.8623 13.6125 21.8623 13.6125L21.8248 13.875H22.5748L23.1373 10.275M22.1623 12.225C22.1623 12.6375 21.8248 13.1625 21.4123 13.1625C21.1498 13.1625 20.9998 12.9375 20.9998 12.5625C20.9998 11.9625 21.2623 11.5875 21.5998 11.5875C21.8623 11.5875 22.1623 11.775 22.1623 12.225ZM1.5748 13.8375L2.0248 11.1375L2.0998 13.8375H2.6248L3.5998 11.1375L3.1873 13.8375H3.97481L4.5748 10.2375H3.6373L2.5873 12.45L2.5498 10.2375H2.1373L0.862305 13.8375H1.5748ZM12.4123 13.8375H13.1998C13.4248 12.6 13.4623 11.5875 13.9873 11.775C14.0623 11.2875 14.1748 11.1 14.2498 10.9125H14.0998C13.7623 10.9125 13.4998 11.3625 13.4998 11.3625L13.5748 10.95M16.8373 11.6625C16.8373 11.6625 17.1748 11.5125 17.6623 11.5125C17.9248 11.5125 18.1498 11.55 18.1498 11.775C18.1498 11.925 18.1123 11.9625 18.1123 11.9625H17.7748C17.1373 11.9625 16.4248 12.225 16.4248 13.0875C16.4248 13.7625 16.8748 13.9125 17.1373 13.9125C17.6623 13.9125 17.8873 13.575 17.9248 13.575L17.8873 13.875H18.5623L18.8623 11.8125C18.8623 10.95 18.1123 10.9125 17.8123 10.9125M18.3748 12.525C18.3748 12.6375 17.9248 13.2375 17.4748 13.2375C17.2498 13.2375 17.1748 13.05 17.1748 12.9375C17.1748 12.75 17.2873 12.4875 17.8498 12.4875C17.9998 12.525 18.3748 12.525 18.3748 12.525ZM18.7123 13.8375H19.4998C19.7248 12.6 19.7623 11.5875 20.2873 11.775C20.3623 11.2875 20.4748 11.1 20.5498 10.9125H20.3998C20.0623 10.9125 19.7998 11.3625 19.7998 11.3625L19.8748 10.95" fill="#DCE5E5"/>
</svg>
