<svg width="24" height="16" viewBox="0 0 24 16" fill="none" xmlns="http://www.w3.org/2000/svg">
<g clip-path="url(#clip0_358_1306)">
<path d="M1.23077 0.307693H22.7692C23.449 0.307693 24 0.85874 24 1.53846V14.4615C24 15.1413 23.449 15.6923 22.7692 15.6923H1.23077C0.551046 15.6923 0 15.1413 0 14.4615V1.53846C0 0.85874 0.551046 0.307693 1.23077 0.307693Z" fill="#0E4595"/>
<path d="M9.02144 11.0378L10.0479 5.01447H11.6898L10.6625 11.0378H9.02144ZM16.5941 5.14431C16.2688 5.02228 15.7591 4.89133 15.1226 4.89133C13.5003 4.89133 12.3575 5.70825 12.3478 6.87911C12.3386 7.74465 13.1637 8.22748 13.7864 8.5156C14.4255 8.81083 14.6403 8.99911 14.6373 9.26277C14.6332 9.6665 14.1269 9.85096 13.655 9.85096C12.9979 9.85096 12.6488 9.75967 12.1096 9.53477L11.898 9.43908L11.6676 10.7875C12.0511 10.9556 12.7602 11.1013 13.4965 11.1088C15.2223 11.1088 16.3426 10.3012 16.3554 9.0509C16.3615 8.3657 15.9241 7.84425 14.9769 7.41434C14.4031 7.13573 14.0516 6.94976 14.0553 6.66763C14.0553 6.41727 14.3528 6.14951 14.9956 6.14951C15.5325 6.1412 15.9214 6.25828 16.2244 6.38028L16.3715 6.44982L16.5941 5.14431ZM20.819 5.01437H19.5503C19.1573 5.01437 18.8632 5.12167 18.6906 5.51388L16.2523 11.0339H17.9763C17.9763 11.0339 18.2582 10.2916 18.3219 10.1287C18.5104 10.1287 20.1852 10.1313 20.4246 10.1313C20.4737 10.3422 20.6243 11.0339 20.6243 11.0339H22.1478L20.819 5.01419V5.01437ZM18.8061 8.90391C18.9419 8.55687 19.4603 7.22013 19.4603 7.22013C19.4505 7.23619 19.595 6.87139 19.6779 6.64523L19.7889 7.16459C19.7889 7.16459 20.1033 8.6024 20.169 8.90391H18.8061ZM7.62766 5.01437L6.02027 9.12207L5.84898 8.2873C5.54975 7.32505 4.61744 6.28253 3.5752 5.76059L5.04492 11.0283L6.78203 11.0263L9.36677 5.01431H7.62766" fill="white"/>
<path d="M4.52091 5.01415H1.87349L1.85254 5.13948C3.91217 5.63806 5.275 6.84295 5.84085 8.29055L5.26515 5.52255C5.16577 5.14117 4.87755 5.02735 4.52097 5.01403" fill="#F2AE14"/>
</g>
<defs>
<clipPath id="clip0_358_1306">
<rect width="24" height="15.3846" fill="white" transform="translate(0 0.307693)"/>
</clipPath>
</defs>
</svg>
