<svg width="81" height="81" viewBox="0 0 81 81" fill="none" xmlns="http://www.w3.org/2000/svg">
<g clip-path="url(#clip0_411_1627)">
<path d="M77.248 45.341L81 40.5004L77.248 35.6598L79.6296 30.0166L74.7503 26.3149L75.5793 20.2465L69.9056 17.9391L69.1376 11.8633L63.0617 11.0952L60.7543 5.42154L54.6859 6.25055L50.9842 1.37125L45.341 3.7528L40.4996 0L35.659 3.75198L30.0158 1.37042L26.3141 6.24972L20.2457 5.42071L17.9383 11.0944L11.8624 11.8624L11.0944 17.9383L5.42071 20.2457L6.24972 26.3141L1.37042 30.0158L3.75198 35.659L0 40.4996L3.75198 45.3402L1.37042 50.9834L6.24972 54.6851L5.42071 60.7535L11.0944 63.0609L11.8624 69.1367L17.9383 69.9048L20.2457 75.5785L26.3141 74.7495L30.0158 79.6288L35.659 77.2472L40.4996 80.9992L45.3402 77.2472L50.9834 79.6288L54.6851 74.7495L60.7535 75.5785L63.0609 69.9048L69.1367 69.1367L69.9048 63.0609L75.5785 60.7535L74.7495 54.6851L79.6288 50.9834L77.2472 45.3402L77.248 45.341ZM40.4996 69.1079C24.6998 69.1079 11.8921 56.2994 11.8921 40.5004C11.8921 24.7014 24.6998 11.8921 40.4996 11.8921C56.2994 11.8921 69.1071 24.7006 69.1071 40.4996C69.1071 56.2986 56.2986 69.1071 40.4996 69.1071V69.1079Z" fill="#2EB758"/>
<path d="M32.9412 56.4791L23.8979 47.4358L27.275 44.0588L32.7624 49.5462L53.6402 26.3883L57.1869 29.5857L32.9412 56.4791Z" fill="#2EB758"/>
</g>
<defs>
<clipPath id="clip0_411_1627">
<rect width="81" height="81" fill="white"/>
</clipPath>
</defs>
</svg>
